<?xml version="1.0" encoding="utf-8"?>
<!-- Generator: Adobe Illustrator 22.1.0, SVG Export Plug-In . SVG Version: 6.00 Build 0)  -->
<svg version="1.1" xmlns="http://www.w3.org/2000/svg" xmlns:xlink="http://www.w3.org/1999/xlink" x="0px" y="0px"
	 viewBox="0 0 900 415" style="enable-background:new 0 0 900 415;" xml:space="preserve">
<style type="text/css">
	.st0{fill:#FFFFFF;}
	.st1{fill:url(#gradientbg_1_);}
	.st2{opacity:8.000000e-02;fill:#FCFCFC;}
	.st3{opacity:0.68;}
	.st4{fill:none;stroke:#FFFFFF;stroke-width:0.2969;stroke-miterlimit:10;}
	.st5{fill:#C1B9A3;}
	.st6{fill:#87775F;}
	.st7{fill:#D8D4CB;}
	.st8{fill:#0099CC;}
	.st9{opacity:7.000000e-02;}
	.st10{fill:#7A3131;}
	.st11{opacity:3.000000e-02;fill:#FFFFFF;}
	.st12{fill:#B7A07E;}
	.st13{fill:#E5E5E5;}
	.st14{fill:#AA24AA;}
</style>
<symbol  id="star" viewBox="-170 -170 340 340">
	<g>
		<image style="overflow:visible;" width="340" height="340" xlink:href="7A92917A.png"  transform="matrix(1 0 0 -1 -170 170)">
		</image>
		<g>
			<circle class="st0" cx="-0.5" cy="0.5" r="51.8"/>
		</g>
	</g>
</symbol>
<g id="Layer_7">
</g>
<g id="Layer_8">
	<g>
		<g>
			<linearGradient id="gradientbg_1_" gradientUnits="userSpaceOnUse" x1="860.2057" y1="207.5" x2="23.6796" y2="207.5">
				<stop  offset="0" style="stop-color:#333366"/>
				<stop  offset="1" style="stop-color:#22205F"/>
			</linearGradient>
			<rect id="gradientbg_6_" x="0" class="st1" width="900" height="415"/>
		</g>
	</g>
	<g id="planet_1_">
		<path class="st2" d="M683.8,214.2c0,1.5,0,3.1-0.1,4.6c0,0.5,0,1-0.1,1.5c0,0.2,0,0.3,0,0.4c0,0.2,0,0.3,0,0.5
			c0,0.5-0.1,0.9-0.1,1.4c-0.1,0.7-0.1,1.3-0.2,2c-0.1,0.7-0.1,1.4-0.2,2.1c-0.1,0.7-0.2,1.4-0.3,2.1c-0.1,0.7-0.2,1.3-0.3,2
			c-0.2,1.1-0.4,2.3-0.6,3.4c-0.1,0.5-0.2,1-0.3,1.5c0,0.2-0.1,0.4-0.1,0.5c-0.1,0.4-0.2,0.9-0.3,1.3c-0.3,1.5-0.7,3-1.2,4.6
			c0,0,0,0,0,0.1c-0.7,2.3-1.4,4.6-2.2,6.8c-0.2,0.5-0.4,1.1-0.6,1.6c-0.6,1.6-1.3,3.2-2,4.8c-0.2,0.5-0.4,0.9-0.6,1.4
			c-0.5,1.1-1,2.2-1.6,3.3c-0.2,0.4-0.4,0.8-0.6,1.2c0,0.1-0.1,0.1-0.1,0.2c-0.3,0.6-0.6,1.1-0.9,1.7h0c-0.2,0.4-0.4,0.7-0.6,1.1
			c-0.3,0.5-0.5,0.9-0.8,1.4c-0.6,1.1-1.2,2.1-1.9,3.1c-0.2,0.4-0.5,0.8-0.8,1.2c-0.5,0.8-1.1,1.6-1.6,2.4c-2,2.9-4.1,5.6-6.4,8.3
			c-0.3,0.4-0.7,0.8-1,1.2c-1.1,1.2-2.2,2.5-3.4,3.6c-0.4,0.4-0.8,0.8-1.2,1.2c-0.8,0.8-1.6,1.5-2.4,2.3c-0.8,0.7-1.6,1.5-2.5,2.2
			c-0.4,0.4-0.8,0.7-1.3,1.1c-0.4,0.3-0.8,0.7-1.2,1c-0.5,0.4-0.9,0.7-1.4,1.1c-0.4,0.3-0.9,0.7-1.3,1c-0.4,0.3-0.9,0.7-1.3,1
			c-0.4,0.3-0.9,0.7-1.3,1c-0.5,0.3-0.9,0.6-1.4,1c-0.5,0.3-0.9,0.6-1.4,0.9c-0.5,0.3-0.9,0.6-1.4,0.9c-0.5,0.3-0.9,0.6-1.4,0.9
			c-0.5,0.3-0.9,0.6-1.4,0.9c-1,0.6-1.9,1.1-2.9,1.7c-1.9,1.1-3.9,2.1-6,3c-1,0.5-2,0.9-3.1,1.4c-0.4,0.2-0.8,0.3-1.2,0.5
			c-0.2,0.1-0.5,0.2-0.7,0.3c-0.9,0.4-1.8,0.7-2.7,1.1c-0.6,0.2-1.2,0.4-1.8,0.7c-0.2,0.1-0.3,0.1-0.5,0.2c-0.6,0.2-1.1,0.4-1.7,0.6
			c-0.2,0.1-0.3,0.1-0.5,0.2c-0.6,0.2-1.1,0.4-1.7,0.5c-0.2,0.1-0.4,0.1-0.5,0.2c-0.5,0.2-0.9,0.3-1.4,0.4c-0.6,0.2-1.2,0.3-1.7,0.5
			c-0.1,0-0.3,0.1-0.4,0.1c-0.8,0.2-1.5,0.4-2.3,0.6c-2.3,0.5-4.6,1-7,1.4c-0.4,0.1-0.9,0.1-1.3,0.2c-0.6,0.1-1.2,0.2-1.7,0.2
			c-0.8,0.1-1.5,0.2-2.3,0.3c-0.6,0.1-1.2,0.1-1.7,0.2c-0.6,0.1-1.3,0.1-1.9,0.2c-0.1,0-0.2,0-0.2,0c-0.7,0.1-1.4,0.1-2.1,0.1
			c-0.7,0-1.4,0.1-2.1,0.1c-0.9,0-1.8,0-2.6,0c-0.8,0-1.7,0-2.5,0c-1.2,0-2.3-0.1-3.5-0.2c-0.4,0-0.9,0-1.3-0.1
			c-0.7,0-1.3-0.1-2-0.2c-0.6,0-1.2-0.1-1.7-0.2c-0.4,0-0.8-0.1-1.1-0.1c-0.2,0-0.3,0-0.4-0.1c-0.6-0.1-1.1-0.1-1.7-0.2
			c-0.6-0.1-1.2-0.2-1.8-0.3c-0.7-0.1-1.4-0.2-2.1-0.4c-0.1,0-0.2,0-0.3-0.1c-0.7-0.1-1.3-0.2-1.9-0.4c-0.1,0-0.2,0-0.3-0.1
			c-0.5-0.1-1.1-0.2-1.6-0.3c-0.7-0.1-1.4-0.3-2-0.5c-0.4-0.1-0.9-0.2-1.3-0.3c-0.4-0.1-0.9-0.2-1.3-0.3c-2.2-0.6-4.4-1.3-6.6-2
			c-0.7-0.2-1.4-0.5-2.1-0.8s-1.4-0.5-2.1-0.8c-1.1-0.4-2.2-0.9-3.2-1.3c-5.4-2.4-10.5-5.2-15.4-8.4c-0.2-0.1-0.3-0.2-0.4-0.3
			c-9.7-6.5-18.3-14.7-25.2-24c-1.5-2-2.9-4-4.2-6.1c-1.2-1.9-2.3-3.8-3.4-5.7c-3.6-6.6-6.5-13.6-8.6-20.9c-1.9-6.7-3.2-13.7-3.7-21
			c-0.2-2.3-0.2-4.7-0.2-7.1c0-8.8,1.1-17.3,3.2-25.4c0.8-2.9,1.6-5.8,2.7-8.7c0.2-0.7,0.5-1.4,0.8-2.1c1.1-3,2.4-5.9,3.8-8.7
			c6.6-13.4,16-25.1,27.4-34.4c2.7-2.2,5.6-4.3,8.5-6.2c1.4-0.9,2.8-1.8,4.3-2.7c2.1-1.3,4.3-2.4,6.6-3.5c6.3-3.1,12.9-5.5,19.8-7.3
			c1.1-0.3,2.2-0.5,3.3-0.8v0c0.7-0.2,1.4-0.3,2.2-0.4c0.7-0.1,1.3-0.2,2-0.4c1.4-0.2,2.8-0.5,4.2-0.6c0.7-0.1,1.5-0.2,2.2-0.3
			c0.1,0,0.2,0,0.3,0c0.7-0.1,1.4-0.1,2.1-0.2c0.3,0,0.7-0.1,1.1-0.1c0.7-0.1,1.5-0.1,2.2-0.2c0.7,0,1.4-0.1,2.2-0.1
			c0.4,0,0.7,0,1.1,0c0.8,0,1.6,0,2.3,0c0.8,0,1.6,0,2.4,0c1.7,0,3.4,0.1,5.1,0.2c0.3,0,0.7,0.1,1,0.1c0.7,0.1,1.3,0.1,2,0.2
			c0.5,0.1,1,0.1,1.5,0.2c0.2,0,0.4,0.1,0.6,0.1c0.6,0.1,1.1,0.1,1.6,0.2c0.7,0.1,1.4,0.2,2.1,0.3c2.1,0.3,4.2,0.7,6.3,1.2
			c0.4,0.1,0.8,0.2,1.2,0.3c0.4,0.1,0.8,0.2,1.2,0.3c0.4,0.1,0.7,0.2,1.1,0.3c0.3,0.1,0.5,0.1,0.8,0.2c0.5,0.1,1,0.3,1.5,0.4
			c2,0.6,4,1.2,6,1.9c0.4,0.2,0.9,0.3,1.3,0.5c0.4,0.2,0.8,0.3,1.2,0.5c1.6,0.6,3.2,1.3,4.8,2c0.4,0.2,0.9,0.4,1.3,0.6
			c0.9,0.4,1.8,0.9,2.7,1.3c0.4,0.2,0.9,0.4,1.3,0.7c0.1,0,0.2,0.1,0.2,0.1c1.1,0.6,2.3,1.2,3.4,1.9c0.6,0.3,1.2,0.7,1.7,1
			c0.5,0.3,1,0.6,1.5,0.9c0.1,0.1,0.2,0.1,0.3,0.2c0.4,0.3,0.8,0.5,1.3,0.8c0.2,0.1,0.4,0.3,0.7,0.4c0.4,0.3,0.9,0.6,1.3,0.9
			c1.1,0.7,2.2,1.5,3.3,2.3c0.4,0.3,0.8,0.6,1.2,0.9c0.2,0.1,0.4,0.3,0.6,0.4c0.5,0.4,0.9,0.7,1.4,1.1c0.5,0.4,1,0.8,1.5,1.3
			c1,0.9,2,1.7,3,2.6c1,0.9,2,1.8,2.9,2.7c1.3,1.2,2.5,2.5,3.7,3.9c0.6,0.6,1.2,1.3,1.7,1.9c0.3,0.4,0.6,0.7,0.9,1.1
			c0.4,0.5,0.9,1,1.3,1.5c0.4,0.5,0.8,1,1.2,1.5c1.1,1.5,2.2,2.9,3.3,4.5c0.3,0.5,0.7,1,1,1.5c0.1,0.1,0.1,0.2,0.2,0.3
			c0.4,0.6,0.8,1.3,1.2,1.9c0.4,0.7,0.9,1.4,1.3,2.1c0.7,1.2,1.4,2.4,2.1,3.7c0.3,0.6,0.6,1.2,0.9,1.7c0,0,0,0.1,0,0.1
			c0.3,0.5,0.5,1,0.8,1.6c0.7,1.4,1.4,2.8,2,4.2c0.3,0.6,0.6,1.3,0.8,2c0.5,1.2,1,2.4,1.5,3.7c0.2,0.5,0.4,1,0.6,1.5
			c0.2,0.6,0.5,1.3,0.7,1.9c0.2,0.7,0.5,1.5,0.7,2.2c0.3,0.9,0.6,1.9,0.8,2.9c0.1,0.5,0.3,1,0.4,1.5c0.1,0.3,0.2,0.7,0.3,1.1
			c0.2,0.8,0.4,1.6,0.6,2.4c0.3,1.2,0.5,2.4,0.8,3.7c0,0.1,0,0.2,0,0.2c0.1,0.6,0.2,1.2,0.3,1.9c0,0.1,0,0.1,0,0.2
			c0.1,0.6,0.2,1.2,0.3,1.8c0.1,0.7,0.2,1.5,0.3,2.2c0.1,0.7,0.2,1.4,0.2,2.1c0.1,0.7,0.1,1.3,0.2,2c0.1,0.6,0.1,1.2,0.1,1.9
			c0,0.1,0,0.3,0,0.4c0,0.5,0.1,1,0.1,1.5C683.7,211.2,683.8,212.7,683.8,214.2z"/>
		<g class="st3">
			
				<image style="overflow:visible;" width="32" height="32" xlink:href="7A92917E.png"  transform="matrix(1 0 0 1 592.2189 121.2189)">
			</image>
			<g>
				<circle class="st4" cx="608.1" cy="136.9" r="13.7"/>
			</g>
		</g>
		<g>
			
				<image style="overflow:visible;opacity:0.33;" width="313" height="313" xlink:href="7A929179.png"  transform="matrix(1 0 0 1 425 58)">
			</image>
			<g>
				<path class="st5" d="M668.7,214.2c0,1.3,0,2.6-0.1,3.9c0,0.4,0,0.9-0.1,1.3c0,0.1,0,0.2,0,0.4c0,0.1,0,0.3,0,0.4
					c0,0.4,0,0.8-0.1,1.2c0,0.6-0.1,1.1-0.2,1.7c-0.1,0.6-0.1,1.2-0.2,1.8c-0.1,0.6-0.1,1.2-0.2,1.8c-0.1,0.6-0.2,1.1-0.3,1.7
					c-0.2,1-0.3,1.9-0.5,2.9c-0.1,0.4-0.2,0.8-0.3,1.3c0,0.2-0.1,0.3-0.1,0.5c-0.1,0.4-0.2,0.8-0.3,1.1c-0.3,1.3-0.6,2.6-1,3.9
					c0,0,0,0,0,0c-0.6,2-1.2,3.9-1.9,5.8c-0.2,0.5-0.3,0.9-0.5,1.4c-0.5,1.4-1.1,2.8-1.7,4.1c-0.2,0.4-0.3,0.8-0.5,1.2
					c-0.4,0.9-0.9,1.9-1.3,2.8c-0.2,0.3-0.3,0.7-0.5,1c0,0.1-0.1,0.1-0.1,0.2c-0.2,0.5-0.5,1-0.8,1.4h0c-0.2,0.3-0.3,0.6-0.5,0.9
					c-0.2,0.4-0.5,0.8-0.7,1.2c-0.5,0.9-1.1,1.8-1.6,2.7c-0.2,0.3-0.4,0.7-0.6,1c-0.4,0.7-0.9,1.4-1.4,2c-1.7,2.5-3.5,4.8-5.5,7.1
					c-0.3,0.3-0.6,0.7-0.9,1c-0.9,1.1-1.9,2.1-2.9,3.1c-0.3,0.3-0.7,0.7-1,1c-0.7,0.7-1.4,1.3-2,2c-0.7,0.6-1.4,1.3-2.1,1.9
					c-0.4,0.3-0.7,0.6-1.1,0.9c-0.3,0.3-0.7,0.6-1,0.9c-0.4,0.3-0.8,0.6-1.2,0.9c-0.4,0.3-0.7,0.6-1.1,0.9c-0.4,0.3-0.7,0.6-1.1,0.9
					c-0.4,0.3-0.8,0.6-1.1,0.8c-0.4,0.3-0.8,0.5-1.2,0.8c-0.4,0.3-0.8,0.5-1.2,0.8c-0.4,0.3-0.8,0.5-1.2,0.8
					c-0.4,0.2-0.8,0.5-1.2,0.7c-0.4,0.2-0.8,0.5-1.2,0.7c-0.8,0.5-1.6,1-2.5,1.4c-1.7,0.9-3.4,1.8-5.1,2.6c-0.9,0.4-1.7,0.8-2.6,1.2
					c-0.3,0.1-0.7,0.3-1,0.4c-0.2,0.1-0.4,0.2-0.6,0.3c-0.8,0.3-1.6,0.6-2.3,0.9c-0.5,0.2-1,0.4-1.5,0.6c-0.1,0-0.3,0.1-0.4,0.1
					c-0.5,0.2-0.9,0.3-1.4,0.5c-0.1,0.1-0.3,0.1-0.4,0.1c-0.5,0.2-1,0.3-1.5,0.4c-0.1,0.1-0.3,0.1-0.5,0.1c-0.4,0.1-0.8,0.2-1.2,0.4
					c-0.5,0.1-1,0.3-1.5,0.4c-0.1,0-0.2,0.1-0.4,0.1c-0.7,0.2-1.3,0.3-2,0.5c-2,0.5-4,0.8-6,1.2c-0.4,0.1-0.8,0.1-1.1,0.2
					c-0.5,0.1-1,0.1-1.5,0.2c-0.6,0.1-1.3,0.2-2,0.2c-0.5,0.1-1,0.1-1.5,0.1c-0.5,0-1.1,0.1-1.6,0.1c-0.1,0-0.1,0-0.2,0
					c-0.6,0-1.2,0.1-1.8,0.1c-0.6,0-1.2,0-1.7,0.1c-0.7,0-1.5,0-2.2,0c-0.7,0-1.4,0-2.1,0c-1,0-2-0.1-3-0.1c-0.4,0-0.8,0-1.1-0.1
					c-0.6,0-1.1-0.1-1.7-0.1c-0.5,0-1-0.1-1.5-0.1c-0.3,0-0.6-0.1-1-0.1c-0.1,0-0.3,0-0.4-0.1c-0.5,0-1-0.1-1.4-0.2
					c-0.5-0.1-1.1-0.1-1.6-0.2c-0.6-0.1-1.2-0.2-1.8-0.3c-0.1,0-0.2,0-0.3,0c-0.6-0.1-1.1-0.2-1.6-0.3c-0.1,0-0.2,0-0.3-0.1
					c-0.5-0.1-0.9-0.2-1.4-0.3c-0.6-0.1-1.2-0.3-1.7-0.4c-0.4-0.1-0.7-0.2-1.1-0.3c-0.4-0.1-0.7-0.2-1.1-0.3
					c-1.9-0.5-3.8-1.1-5.6-1.7c-0.6-0.2-1.2-0.4-1.8-0.6c-0.6-0.2-1.2-0.4-1.8-0.7c-0.9-0.4-1.8-0.7-2.7-1.1c-4.6-2-9-4.4-13.1-7.2
					c-0.1-0.1-0.2-0.2-0.4-0.2c-8.3-5.5-15.6-12.5-21.5-20.5c-1.3-1.7-2.5-3.4-3.6-5.2c-1-1.6-2-3.2-2.9-4.9
					c-3.1-5.6-5.5-11.6-7.3-17.8c-1.6-5.7-2.7-11.7-3.1-17.9c-0.1-2-0.2-4-0.2-6c0-7.5,0.9-14.7,2.7-21.7c0.6-2.5,1.4-5,2.3-7.4
					c0.2-0.6,0.4-1.2,0.7-1.8c1-2.5,2-5,3.2-7.4c5.6-11.4,13.6-21.4,23.4-29.3c2.3-1.9,4.7-3.7,7.2-5.3c1.2-0.8,2.4-1.5,3.7-2.3
					c1.8-1.1,3.7-2.1,5.6-3c5.3-2.6,11-4.7,16.9-6.2c0.9-0.2,1.9-0.5,2.8-0.6v0c0.6-0.1,1.2-0.3,1.8-0.4c0.6-0.1,1.1-0.2,1.7-0.3
					c1.2-0.2,2.4-0.4,3.6-0.5c0.6-0.1,1.2-0.2,1.9-0.2c0.1,0,0.2,0,0.3,0c0.6-0.1,1.2-0.1,1.8-0.2c0.3,0,0.6-0.1,0.9-0.1
					c0.6,0,1.3-0.1,1.9-0.1c0.6,0,1.2-0.1,1.9-0.1c0.3,0,0.6,0,1,0c0.7,0,1.3,0,2,0s1.3,0,2,0c1.5,0,2.9,0.1,4.4,0.2
					c0.3,0,0.6,0,0.8,0.1c0.6,0,1.1,0.1,1.7,0.2c0.4,0,0.8,0.1,1.2,0.1c0.2,0,0.4,0,0.5,0.1c0.5,0.1,0.9,0.1,1.4,0.2
					c0.6,0.1,1.2,0.2,1.8,0.3c1.8,0.3,3.6,0.6,5.3,1c0.3,0.1,0.7,0.2,1,0.2c0.4,0.1,0.7,0.2,1.1,0.3c0.3,0.1,0.6,0.2,1,0.2
					c0.2,0.1,0.5,0.1,0.7,0.2c0.4,0.1,0.8,0.2,1.3,0.4c1.7,0.5,3.4,1,5.1,1.6c0.4,0.1,0.7,0.3,1.1,0.4c0.4,0.1,0.7,0.3,1.1,0.4
					c1.4,0.5,2.7,1.1,4.1,1.7c0.4,0.2,0.7,0.3,1.1,0.5c0.8,0.4,1.5,0.7,2.3,1.1c0.4,0.2,0.7,0.4,1.1,0.6c0.1,0,0.1,0.1,0.2,0.1
					c1,0.5,1.9,1,2.9,1.6c0.5,0.3,1,0.6,1.5,0.9c0.4,0.3,0.9,0.5,1.3,0.8c0.1,0,0.2,0.1,0.2,0.1c0.4,0.2,0.7,0.5,1.1,0.7
					c0.2,0.1,0.4,0.2,0.6,0.4c0.4,0.2,0.7,0.5,1.1,0.7c0.9,0.6,1.9,1.3,2.8,2c0.3,0.3,0.7,0.5,1,0.8c0.2,0.1,0.3,0.2,0.5,0.4
					c0.4,0.3,0.8,0.6,1.2,0.9c0.4,0.4,0.9,0.7,1.3,1.1c0.9,0.7,1.7,1.5,2.6,2.2c0.8,0.8,1.7,1.5,2.5,2.3c1.1,1.1,2.2,2.2,3.2,3.3
					c0.5,0.5,1,1.1,1.5,1.6c0.3,0.3,0.5,0.6,0.8,0.9c0.4,0.4,0.7,0.9,1.1,1.3c0.3,0.4,0.7,0.8,1,1.3c1,1.2,1.9,2.5,2.8,3.8
					c0.3,0.4,0.6,0.8,0.9,1.2c0,0.1,0.1,0.2,0.2,0.2c0.4,0.5,0.7,1.1,1.1,1.6c0.4,0.6,0.7,1.2,1.1,1.8c0.6,1,1.2,2.1,1.8,3.1
					c0.3,0.5,0.5,1,0.8,1.5c0,0,0,0,0,0.1c0.2,0.4,0.5,0.9,0.7,1.3c0.6,1.2,1.2,2.4,1.7,3.6c0.2,0.5,0.5,1.1,0.7,1.7
					c0.4,1,0.9,2.1,1.3,3.1c0.2,0.4,0.3,0.9,0.5,1.3c0.2,0.5,0.4,1.1,0.6,1.6c0.2,0.6,0.4,1.3,0.6,1.9c0.3,0.8,0.5,1.6,0.7,2.4
					c0.1,0.4,0.2,0.8,0.3,1.3c0.1,0.3,0.2,0.6,0.2,0.9c0.2,0.7,0.3,1.4,0.5,2.1c0.2,1,0.5,2.1,0.6,3.1c0,0.1,0,0.1,0,0.2
					c0.1,0.5,0.2,1.1,0.3,1.6c0,0,0,0.1,0,0.1c0.1,0.5,0.2,1,0.2,1.6c0.1,0.6,0.2,1.2,0.2,1.9c0.1,0.6,0.1,1.2,0.2,1.8
					c0.1,0.6,0.1,1.1,0.2,1.7c0,0.5,0.1,1.1,0.1,1.6c0,0.1,0,0.2,0,0.4c0,0.4,0,0.9,0.1,1.3C668.6,211.6,668.7,212.9,668.7,214.2z"
					/>
			</g>
		</g>
		<path class="st6" d="M663.1,183.7c0.5,1.2,0.9,2.5,1.3,3.7c0.1,0.4,0.3,0.8,0.4,1.2c0,0.1,0.1,0.2,0.1,0.4
			c0.1,0.1,0.1,0.3,0.1,0.4c0.1,0.4,0.2,0.7,0.3,1.1c0.2,0.6,0.3,1.1,0.5,1.7c0.2,0.6,0.3,1.2,0.4,1.8c0.2,0.6,0.3,1.2,0.4,1.8
			c0.1,0.5,0.2,1.1,0.3,1.7c0.2,1,0.4,1.9,0.5,2.9c0.1,0.4,0.1,0.8,0.2,1.3c0,0.2,0,0.3,0.1,0.5c0.1,0.4,0.1,0.8,0.2,1.2
			c0.2,1.3,0.3,2.6,0.4,4c0,0,0,0,0,0l0,0c0.2,2,0.3,4.1,0.3,6.1c0,0.5,0,1,0,1.4c0,1.5-0.1,3-0.1,4.5c0,0.4,0,0.9-0.1,1.3
			c-0.1,1-0.2,2.1-0.3,3.1c0,0.4-0.1,0.7-0.1,1.1c0,0.1,0,0.1,0,0.2c-0.1,0.5-0.1,1.1-0.2,1.6c0,0.4-0.1,0.7-0.2,1.1
			c-0.1,0.5-0.1,0.9-0.2,1.4c-0.2,1-0.4,2-0.6,3.1c-0.1,0.4-0.2,0.8-0.3,1.2c-0.2,0.8-0.4,1.6-0.6,2.4c-0.7,2.9-1.6,5.7-2.6,8.5
			c-0.2,0.4-0.3,0.8-0.5,1.2c-0.5,1.3-1,2.6-1.6,3.9c-0.2,0.4-0.4,0.9-0.6,1.3c-0.4,0.8-0.8,1.7-1.2,2.5c-0.4,0.9-0.8,1.7-1.3,2.5
			c-0.2,0.4-0.5,0.8-0.7,1.2c-0.2,0.4-0.4,0.8-0.7,1.2c-0.3,0.4-0.5,0.9-0.8,1.3c-0.2,0.4-0.5,0.8-0.7,1.2c-0.3,0.4-0.5,0.8-0.8,1.2
			c-0.3,0.4-0.5,0.8-0.8,1.2c-0.3,0.4-0.5,0.8-0.8,1.2c-0.3,0.4-0.5,0.8-0.8,1.2c-0.3,0.4-0.6,0.8-0.8,1.1c-0.3,0.4-0.6,0.7-0.9,1.1
			c-0.3,0.4-0.6,0.8-0.9,1.1c-0.6,0.7-1.2,1.5-1.8,2.2c-1.2,1.4-2.5,2.8-3.8,4.2c-0.7,0.7-1.3,1.4-2,2c-0.3,0.3-0.5,0.5-0.8,0.8
			c-0.2,0.2-0.3,0.3-0.5,0.5c-0.6,0.6-1.2,1.1-1.9,1.7c-0.4,0.4-0.8,0.7-1.2,1.1c-0.1,0.1-0.2,0.2-0.3,0.3c-0.4,0.3-0.8,0.6-1.2,0.9
			c-0.1,0.1-0.2,0.2-0.3,0.3c-0.4,0.3-0.8,0.6-1.2,0.9c-0.1,0.1-0.3,0.2-0.4,0.3c-0.3,0.3-0.7,0.5-1,0.8c-0.4,0.3-0.8,0.6-1.2,0.9
			c-0.1,0.1-0.2,0.1-0.3,0.2c-0.6,0.4-1.1,0.8-1.7,1.1c-1.7,1.1-3.4,2.2-5.2,3.2c-0.3,0.2-0.7,0.4-1,0.6c-0.4,0.2-0.9,0.5-1.3,0.7
			c-0.6,0.3-1.2,0.6-1.8,0.9c-0.4,0.2-0.9,0.4-1.3,0.7c-0.5,0.2-1,0.5-1.5,0.7c-0.1,0-0.1,0.1-0.2,0.1c-0.5,0.3-1.1,0.5-1.7,0.7
			c-0.5,0.2-1.1,0.5-1.6,0.7c-0.7,0.3-1.4,0.6-2.1,0.8c-0.7,0.2-1.3,0.5-2,0.7c-0.9,0.3-1.9,0.6-2.8,0.9c-0.4,0.1-0.7,0.2-1.1,0.3
			c-0.5,0.2-1.1,0.3-1.6,0.5c-0.5,0.1-1,0.3-1.4,0.4c-0.3,0.1-0.6,0.2-0.9,0.2c-0.1,0-0.3,0.1-0.4,0.1c-0.5,0.1-0.9,0.2-1.4,0.3
			c-0.5,0.1-1,0.2-1.6,0.3c-0.6,0.1-1.2,0.2-1.8,0.3c-0.1,0-0.2,0-0.3,0.1c-0.6,0.1-1.1,0.2-1.7,0.3c-0.1,0-0.2,0-0.3,0
			c-0.5,0.1-0.9,0.1-1.4,0.2c-0.6,0.1-1.2,0.2-1.8,0.2c-0.4,0-0.7,0.1-1.1,0.1c-0.4,0.1-0.8,0.1-1.1,0.1c-2,0.2-3.9,0.3-5.8,0.3
			c-1.3,0-2.5,0-3.8,0c0,0,0,0,0,0c0.3-0.2,0.5-0.3,0.8-0.4l29.6-11.1c1.2-0.4,2.1-1.3,2.5-2.4c0.5-1.1,0.5-2.4,0.1-3.6
			c-0.9-2.4-3.5-3.7-5.9-2.8l-21.2,7.9c-2.4,0.9-5-0.4-5.9-2.8l0,0c-0.9-2.4,0.3-5.1,2.6-6l6.2-2.3c1.2-0.4,2.1-1.3,2.5-2.4
			c0.5-1.1,0.5-2.3,0.1-3.6c-0.9-2.4-3.5-3.7-5.9-2.8l-25.5,9.6c-2.4,0.9-5-0.4-5.9-2.8l0,0c-0.9-2.4,0.3-5.1,2.6-6l25.2-9.4
			c1.2-0.4,2.1-1.3,2.5-2.4c0.5-1.1,0.5-2.3,0.1-3.6c-0.9-2.4-3.5-3.7-5.9-2.8l-14.2,5.3c-2.4,0.9-5-0.4-5.9-2.8l0,0
			c-0.9-2.4,0.3-5.1,2.6-6l27.8-10.4c1.2-0.4,2.1-1.3,2.5-2.4c0.5-1.1,0.5-2.3,0.1-3.6c-0.9-2.4-3.5-3.7-5.9-2.8l-48.8,18.3
			c-2.4,0.9-5-0.4-5.9-2.8l0,0c-0.9-2.4,0.3-5.1,2.6-6l35.2-13.2c0.2-0.1,0.3-0.1,0.5-0.2c0.9-0.5,1.6-1.3,2.1-2.2
			c0.5-1.1,0.5-2.3,0.1-3.6c-0.9-2.4-3.5-3.7-5.9-2.8l-18.1,6.8c-2.4,0.9-5-0.4-5.9-2.8l0,0c-0.9-2.4,0.3-5.1,2.6-6l26.7-10
			c1.2-0.4,2.1-1.3,2.5-2.4c0.5-1.1,0.5-2.4,0.1-3.6c-0.9-2.4-3.5-3.7-5.9-2.8l-46,17.2c-2.4,0.9-5-0.4-5.9-2.8l0,0
			c-0.9-2.4,0.3-5.1,2.6-6l41.4-15.5c2.4-0.9,3.5-3.6,2.6-6c-0.9-2.4-3.5-3.7-5.9-2.8l-24.5,9.2c-2.4,0.9-5-0.4-5.9-2.8l0,0
			c-0.9-2.4,0.3-5.1,2.6-6l36-13.5c2.4-0.9,3.5-3.5,2.6-6c-0.9-2.4-3.5-3.7-5.9-2.8l-26.7,10c-2.4,0.9-5-0.4-5.9-2.8l0,0
			c-0.9-2.4,0.3-5.1,2.6-6l30.5-11.4c2.4-0.9,3.5-3.6,2.6-6l0,0c-0.9-2.4-3.5-3.7-5.9-2.8l-17.9,6.7c-1.2,0.4-2.4,0.4-3.5-0.2
			c-1.1-0.5-2-1.4-2.4-2.6c-0.3-0.8-0.4-1.6-0.2-2.4l0,0c0.5-0.3,1.1-0.7,1.6-1c0.5-0.3,1-0.6,1.5-0.9c1-0.6,2.1-1.2,3.1-1.8
			c0.5-0.3,1.1-0.6,1.7-0.9c0.1,0,0.2-0.1,0.2-0.1c0.5-0.3,1.1-0.5,1.6-0.8c0.3-0.1,0.5-0.3,0.8-0.4c0.6-0.3,1.2-0.5,1.7-0.8
			c0.6-0.2,1.1-0.5,1.7-0.7c0.3-0.1,0.6-0.2,0.9-0.4c0.6-0.3,1.2-0.5,1.9-0.7c0.6-0.2,1.3-0.5,1.9-0.7c1.4-0.5,2.8-0.9,4.2-1.3
			c0.3-0.1,0.5-0.2,0.8-0.2c0.5-0.2,1.1-0.3,1.6-0.4c0.6-0.2,1.2-0.3,1.8-0.4c0.5-0.1,0.9-0.2,1.4-0.3c0.6-0.1,1.2-0.3,1.7-0.4
			c1.8-0.4,3.6-0.7,5.4-0.9c0.3,0,0.7-0.1,1-0.1c0.4,0,0.7-0.1,1.1-0.1c0.3,0,0.7-0.1,1-0.1c0.2,0,0.5,0,0.7-0.1
			c0.4,0,0.9-0.1,1.3-0.1c1.8-0.1,3.6-0.2,5.4-0.3c0.4,0,0.8,0,1.2,0c0.4,0,0.8,0,1.1,0c1.5,0,3,0.1,4.4,0.2c0.4,0,0.8,0.1,1.2,0.1
			c0.8,0.1,1.7,0.1,2.6,0.2c0.4,0,0.8,0.1,1.2,0.1c0.1,0,0.2,0,0.2,0c1.1,0.1,2.2,0.3,3.3,0.5c0.6,0.1,1.1,0.2,1.7,0.3
			c0.5,0.1,1,0.2,1.5,0.3c0.1,0,0.2,0,0.3,0.1c0.4,0.1,0.8,0.2,1.3,0.3c0.2,0,0.4,0.1,0.7,0.1c0.4,0.1,0.9,0.2,1.3,0.3
			c1.1,0.3,2.2,0.6,3.3,0.9c0.4,0.1,0.8,0.2,1.2,0.4c0.2,0,0.4,0.1,0.6,0.2c0.5,0.1,1,0.3,1.4,0.5c0.5,0.2,1.1,0.4,1.6,0.5
			c1.1,0.4,2.1,0.8,3.2,1.2c1.1,0.4,2.1,0.9,3.1,1.3c1.4,0.6,2.8,1.3,4.1,2c0.7,0.3,1.3,0.7,2,1c0.4,0.2,0.7,0.4,1.1,0.6
			c0.5,0.3,1,0.5,1.5,0.8c0.5,0.3,0.9,0.5,1.4,0.8c1.3,0.8,2.7,1.7,4,2.6c0.4,0.3,0.8,0.6,1.3,0.9c0.1,0.1,0.2,0.1,0.2,0.2
			c0.5,0.4,1.1,0.8,1.6,1.1c0.6,0.4,1.1,0.8,1.7,1.3c0.9,0.7,1.9,1.5,2.8,2.3c0.4,0.4,0.8,0.7,1.3,1.1c0,0,0,0,0.1,0.1
			c0.4,0.3,0.7,0.7,1.1,1c1,0.9,1.9,1.8,2.9,2.8c0.4,0.4,0.8,0.9,1.3,1.3c0.8,0.8,1.5,1.6,2.3,2.5c0.3,0.3,0.6,0.7,0.9,1
			c0.4,0.4,0.7,0.9,1.1,1.3c0.4,0.5,0.8,1,1.2,1.6c0.5,0.7,1,1.3,1.5,2c0.3,0.4,0.5,0.7,0.8,1.1c0.2,0.2,0.4,0.5,0.5,0.8
			c0.4,0.6,0.8,1.2,1.2,1.8c0.6,0.9,1.2,1.8,1.7,2.7c0,0.1,0.1,0.1,0.1,0.2c0.3,0.5,0.6,0.9,0.8,1.4c0,0,0.1,0.1,0.1,0.1
			c0.3,0.5,0.5,0.9,0.8,1.4c0.3,0.5,0.6,1.1,0.9,1.7c0.3,0.5,0.6,1.1,0.8,1.6c0.3,0.5,0.5,1,0.8,1.6c0.2,0.5,0.4,1,0.7,1.4
			c0.1,0.1,0.1,0.2,0.2,0.3c0.2,0.4,0.3,0.8,0.5,1.2C662.2,181.3,662.7,182.5,663.1,183.7z"/>
		<g>
			
				<image style="overflow:visible;opacity:0.53;" width="247" height="178" xlink:href="7A92917B.png"  transform="matrix(1 0 0 1 454.9333 118.9333)">
			</image>
			<g>
				<path class="st7" d="M688.9,145c0-0.3,0-0.5-0.1-0.8c0-0.3-0.1-0.6-0.1-0.9c0-0.3-0.1-0.6-0.2-0.8c0-0.3-0.1-0.5-0.2-0.8
					c0-0.2-0.1-0.3-0.2-0.5c0-0.1,0-0.1-0.1-0.2c0,0,0-0.1-0.1-0.1c-0.1-0.2-0.1-0.4-0.2-0.5c-0.2-0.5-0.5-1-0.8-1.5
					c-0.3-0.5-0.7-0.9-1-1.4c-0.1-0.1-0.2-0.3-0.4-0.4c0,0-0.1-0.1-0.1-0.1c-0.2-0.2-0.3-0.3-0.5-0.5c-0.2-0.2-0.4-0.3-0.6-0.5
					c-0.2-0.2-0.4-0.3-0.7-0.5c-0.2-0.2-0.5-0.3-0.7-0.5c-0.2-0.1-0.4-0.3-0.7-0.4c0,0,0,0-0.1,0c-0.2-0.1-0.5-0.3-0.7-0.4
					c0,0-0.1,0-0.1,0c-0.5-0.2-1-0.4-1.5-0.6c-0.4-0.1-0.7-0.3-1.1-0.4c-0.2-0.1-0.3-0.1-0.5-0.2c-0.2-0.1-0.5-0.1-0.7-0.2
					c-0.5-0.1-1-0.2-1.5-0.3c-0.4-0.1-0.8-0.2-1.2-0.2c-0.4,0-0.7-0.1-1.1-0.1c-0.3,0-0.6-0.1-0.9-0.1c-0.8-0.1-1.5-0.1-2.3-0.2
					c-0.4,0-0.8,0-1.3,0c-1,0-1.9,0-3,0c-0.4,0-0.8,0-1.2,0.1c0,0,0,0-0.1,0c-0.4,0-0.9,0.1-1.3,0.1c-1,0.1-2,0.2-3,0.3
					c-0.6,0.1-1.2,0.1-1.8,0.2c-0.6,0.1-1.1,0.2-1.7,0.2c-0.1,0-0.2,0-0.3,0c-0.5,0.1-0.9,0.1-1.4,0.2c-1.4,0.2-2.9,0.5-4.4,0.8
					c-0.5,0.1-1,0.2-1.6,0.3c-0.6,0.1-1.1,0.2-1.7,0.4c-0.4,0.1-0.8,0.2-1.2,0.3c-0.7,0.2-1.5,0.4-2.2,0.6c-1.6,0.4-3.1,0.9-4.8,1.3
					c-1.2,0.4-2.4,0.7-3.6,1.1c-1.2,0.4-2.5,0.8-3.7,1.2c-0.6,0.2-1.3,0.4-1.9,0.6c-0.6,0.2-1.1,0.4-1.7,0.6
					c-0.2,0.1-0.5,0.2-0.7,0.2c-0.1,0-0.2,0.1-0.2,0.1c0.3,0.2,0.5,0.4,0.8,0.5c0.2,0.1,0.4,0.2,0.6,0.4c0.4,0.2,0.7,0.5,1.1,0.7
					c0.5,0.3,1,0.7,1.5,1c0.8-0.3,1.6-0.6,2.4-0.8c1.2-0.4,2.3-0.8,3.4-1.1c1.5-0.5,3-0.9,4.5-1.3c0.7-0.2,1.4-0.4,2.1-0.6
					c0.4-0.1,0.8-0.2,1.1-0.3c0.5-0.1,1-0.3,1.6-0.4c0.5-0.1,1-0.2,1.5-0.3c1.4-0.3,2.8-0.6,4.1-0.9c0.4-0.1,0.9-0.2,1.3-0.3
					c0.1,0,0.2,0,0.2,0c0.5-0.1,1.1-0.2,1.6-0.3c0.6-0.1,1.1-0.2,1.7-0.3c1-0.1,1.9-0.2,2.8-0.3c0.4,0,0.8-0.1,1.3-0.1c0,0,0,0,0,0
					c0.4,0,0.7-0.1,1.1-0.1c0.9-0.1,1.9-0.1,2.8-0.1c0.4,0,0.8,0,1.2,0c0.7,0,1.5,0,2.2,0.1c0.3,0,0.5,0,0.8,0.1
					c0.3,0,0.7,0.1,1,0.1c0.4,0,0.8,0.1,1.1,0.2c0.5,0.1,0.9,0.2,1.4,0.3c0.2,0,0.5,0.1,0.7,0.2c0.1,0,0.3,0.1,0.5,0.1
					c0.4,0.1,0.7,0.2,1,0.3c0.5,0.1,1,0.3,1.4,0.5c0,0,0.1,0,0.1,0c0.2,0.1,0.5,0.2,0.7,0.3c0,0,0.1,0,0.1,0
					c0.2,0.1,0.4,0.2,0.6,0.3c0.2,0.1,0.5,0.3,0.7,0.4c0.2,0.1,0.4,0.3,0.6,0.4c0.2,0.1,0.4,0.3,0.5,0.5c0.2,0.1,0.3,0.3,0.5,0.4
					c0,0,0.1,0.1,0.1,0.1c0.1,0.1,0.2,0.3,0.4,0.4c0.3,0.4,0.6,0.8,0.9,1.2c0.3,0.4,0.5,0.9,0.7,1.4c0.1,0.2,0.1,0.3,0.2,0.5
					c0,0,0,0.1,0,0.1c0,0.1,0,0.1,0.1,0.2c0.1,0.1,0.1,0.3,0.1,0.4c0.1,0.2,0.1,0.5,0.2,0.7c0.1,0.3,0.1,0.5,0.1,0.8
					c0,0.3,0.1,0.5,0.1,0.8c0,0.2,0,0.5,0,0.7c0,0.4,0,0.9,0,1.3c0,0.2,0,0.4,0,0.6c0,0.1,0,0.2,0,0.2c0,0.2,0,0.4-0.1,0.6
					c-0.1,0.6-0.2,1.3-0.4,2c0,0,0,0,0,0c-0.3,1-0.6,2.2-1,3.3c-0.1,0.3-0.2,0.5-0.3,0.8c-0.3,0.8-0.7,1.7-1.2,2.6
					c-0.1,0.3-0.2,0.5-0.4,0.8c-0.3,0.6-0.7,1.3-1,1.9c-0.1,0.2-0.3,0.5-0.4,0.7c0,0.1,0,0.1-0.1,0.1c-0.2,0.4-0.4,0.7-0.6,1.1
					c-0.1,0.2-0.3,0.5-0.4,0.7c-0.2,0.3-0.4,0.6-0.6,0.9c-0.4,0.7-0.9,1.4-1.4,2.1c-0.2,0.3-0.4,0.5-0.6,0.8
					c-0.4,0.6-0.8,1.1-1.2,1.7c-1.5,2.1-3.2,4.2-5.1,6.4c-0.3,0.3-0.5,0.7-0.8,1c-0.9,1.1-1.8,2.1-2.8,3.2c-0.3,0.4-0.6,0.7-1,1.1
					c-0.4,0.4-0.8,0.9-1.2,1.3c-0.3,0.3-0.5,0.5-0.8,0.8c-0.7,0.7-1.4,1.5-2.1,2.2c-0.4,0.4-0.7,0.7-1.1,1.1l-1.6,1.6
					c-0.2,0.2-0.4,0.4-0.6,0.6c-0.4,0.4-0.8,0.8-1.1,1.1c-0.4,0.4-0.8,0.8-1.2,1.1c-0.4,0.4-0.8,0.8-1.2,1.1
					c-0.4,0.4-0.8,0.8-1.2,1.1c-0.4,0.4-0.8,0.8-1.2,1.1c-0.4,0.4-0.8,0.8-1.3,1.2c-0.4,0.4-0.9,0.8-1.3,1.2
					c-0.4,0.4-0.9,0.8-1.3,1.1c-0.9,0.8-1.8,1.5-2.7,2.3c-1.8,1.5-3.6,3.1-5.5,4.7c-0.9,0.8-1.9,1.6-2.9,2.3
					c-0.4,0.3-0.7,0.6-1.1,0.9c-0.2,0.2-0.5,0.4-0.7,0.6c-0.9,0.7-1.7,1.4-2.6,2.1c-0.6,0.5-1.1,0.9-1.7,1.4
					c-0.2,0.1-0.3,0.2-0.5,0.4c-0.5,0.4-1.1,0.8-1.6,1.2c-0.2,0.1-0.3,0.2-0.5,0.3c-0.5,0.4-1.1,0.8-1.6,1.2
					c-0.2,0.1-0.3,0.3-0.5,0.4c-0.4,0.3-0.9,0.7-1.4,1c-0.5,0.4-1.1,0.8-1.7,1.2c-0.1,0.1-0.3,0.2-0.4,0.3c-0.7,0.5-1.5,1.1-2.3,1.6
					c-2.2,1.6-4.5,3.3-6.9,4.9c-0.5,0.3-0.9,0.6-1.3,0.9c-0.6,0.4-1.2,0.8-1.7,1.2c-0.8,0.5-1.5,1-2.3,1.5c-0.6,0.4-1.1,0.8-1.7,1.2
					c-0.6,0.4-1.3,0.8-1.9,1.3c-0.1,0-0.2,0.1-0.2,0.2c-0.7,0.5-1.4,0.9-2.1,1.4c-0.7,0.4-1.4,0.9-2.1,1.3c-0.9,0.6-1.8,1.1-2.7,1.7
					c-0.9,0.5-1.7,1.1-2.5,1.6c-1.2,0.7-2.4,1.5-3.6,2.2c-0.5,0.3-0.9,0.6-1.4,0.8c-0.7,0.4-1.4,0.8-2,1.2c-0.6,0.3-1.2,0.7-1.8,1
					c-0.4,0.2-0.8,0.5-1.2,0.7c-0.2,0.1-0.3,0.2-0.5,0.3c-0.6,0.4-1.2,0.7-1.8,1c-0.7,0.4-1.3,0.8-1.9,1.1c-0.7,0.4-1.5,0.8-2.2,1.3
					c-0.1,0.1-0.2,0.1-0.3,0.2c-0.7,0.4-1.3,0.8-2,1.1c-0.1,0.1-0.3,0.1-0.3,0.2c-0.6,0.3-1.1,0.6-1.7,0.9c-0.7,0.4-1.4,0.8-2.2,1.2
					c-0.4,0.2-0.9,0.5-1.3,0.7c-0.5,0.3-0.9,0.5-1.4,0.7c-2.4,1.3-4.7,2.5-7,3.6c-0.8,0.4-1.5,0.8-2.3,1.1s-1.5,0.7-2.2,1.1
					c-1.2,0.6-2.3,1.1-3.5,1.7c-2.4,1.1-4.7,2.2-7,3.2c-3.4,1.5-6.8,3-10.1,4.3c-0.2,0.1-0.3,0.1-0.5,0.2c-6.1,2.5-12,4.5-17.4,6.2
					c-4.4,1.3-8.5,2.4-12.4,3.2c-1.8,0.4-3.6,0.7-5.3,1c-1.5,0.2-3,0.4-4.5,0.6c-4.8,0.5-9,0.4-12.4-0.3c-3.1-0.7-5.6-1.8-7.4-3.5
					c-0.6-0.5-1.1-1.2-1.5-1.8c-1.5-2.5-1.9-5.5-1.2-9.2c0.3-1.3,0.6-2.7,1.2-4.1c0.1-0.3,0.3-0.7,0.4-1.1c0.6-1.6,1.4-3.2,2.3-4.8
					c3.8-7.1,10.2-15.3,18.7-24c-0.3-1.6-0.5-3.1-0.7-4.8c-0.3,0.4-0.7,0.7-1,1.1c-10.4,10.6-18.1,20.6-22.4,29.1
					c-0.9,1.8-1.7,3.6-2.3,5.2c-0.2,0.4-0.3,0.8-0.4,1.2c-0.5,1.6-0.9,3.1-1.1,4.5c-0.6,3.9-0.1,7.3,1.6,10.1c0.5,0.7,1,1.4,1.6,2
					c2,1.9,4.7,3.3,8,4.1c3.7,0.9,8.1,1.1,13.3,0.8c1.5-0.1,3.1-0.3,4.8-0.5c1.8-0.2,3.7-0.5,5.7-0.9c5.6-1.1,11.7-2.6,18.3-4.7
					c4.3-1.4,8.7-2.9,13.3-4.7c0.2-0.1,0.3-0.1,0.5-0.2c4.7-1.8,9.6-3.9,14.7-6.2c1.1-0.5,2.2-1,3.4-1.5c1.2-0.6,2.5-1.2,3.7-1.8
					c0.8-0.4,1.6-0.8,2.3-1.1c0.8-0.4,1.6-0.8,2.4-1.2c2.4-1.2,4.9-2.5,7.4-3.8c0.5-0.3,1-0.5,1.4-0.8c0.5-0.3,1-0.5,1.4-0.8
					c0.8-0.4,1.5-0.8,2.3-1.2c0.6-0.3,1.2-0.7,1.8-1c0.1-0.1,0.2-0.1,0.4-0.2c0.7-0.4,1.4-0.8,2.1-1.2c0.1-0.1,0.2-0.1,0.3-0.2
					c0.8-0.4,1.5-0.9,2.3-1.3c0.7-0.4,1.4-0.8,2-1.2c0.6-0.4,1.2-0.7,1.8-1.1c0.2-0.1,0.3-0.2,0.5-0.3c0.4-0.2,0.8-0.5,1.2-0.7
					c0.6-0.4,1.3-0.7,1.9-1.1c0.7-0.4,1.4-0.9,2.1-1.3c0.5-0.3,1-0.6,1.5-0.9c1.2-0.8,2.5-1.5,3.7-2.3c0.9-0.6,1.8-1.1,2.7-1.7
					c0.9-0.6,1.9-1.2,2.8-1.8c0.7-0.5,1.5-0.9,2.2-1.4c0.8-0.5,1.5-1,2.3-1.5c0.1-0.1,0.2-0.1,0.3-0.2c0.7-0.4,1.3-0.9,2-1.3
					c0.6-0.4,1.2-0.8,1.8-1.2c0.8-0.5,1.6-1.1,2.4-1.6c0.6-0.4,1.2-0.8,1.8-1.3c0.5-0.3,0.9-0.6,1.4-1c2.4-1.7,4.8-3.4,7.2-5.1
					c0.8-0.6,1.6-1.2,2.4-1.7c0.1-0.1,0.3-0.2,0.4-0.3c0.6-0.4,1.2-0.9,1.8-1.3c0.5-0.4,1-0.7,1.4-1.1c0.2-0.1,0.4-0.3,0.5-0.4
					c0.6-0.4,1.2-0.9,1.7-1.3c0.2-0.1,0.3-0.3,0.5-0.4c0.5-0.4,1.1-0.9,1.7-1.3c0.2-0.1,0.3-0.3,0.5-0.4c0.6-0.5,1.2-1,1.8-1.4
					c0.9-0.7,1.8-1.5,2.7-2.2c0.3-0.2,0.5-0.4,0.8-0.6c0.4-0.3,0.8-0.6,1.2-1c1-0.8,2-1.7,3-2.5c2-1.7,3.9-3.3,5.7-5
					c0.9-0.8,1.9-1.6,2.8-2.5c0.5-0.4,0.9-0.8,1.3-1.2c0.4-0.4,0.9-0.8,1.3-1.2c0.4-0.4,0.9-0.8,1.3-1.2c0.4-0.4,0.9-0.8,1.3-1.2
					c0.4-0.4,0.8-0.8,1.3-1.2c0.2-0.2,0.4-0.4,0.6-0.5c0.2-0.2,0.5-0.5,0.7-0.7c0.4-0.4,0.8-0.8,1.2-1.2c0.4-0.4,0.8-0.8,1.2-1.2
					c0.4-0.4,0.8-0.8,1.2-1.3c0.4-0.4,0.7-0.8,1.1-1.1c0.2-0.2,0.3-0.4,0.5-0.5c0.2-0.2,0.4-0.4,0.6-0.6c0.7-0.8,1.5-1.6,2.2-2.4
					c0.7-0.8,1.4-1.5,2.1-2.3c0.3-0.4,0.7-0.8,1-1.2c1-1.1,2-2.3,2.9-3.4c0.3-0.4,0.6-0.7,0.9-1.1c1.9-2.4,3.6-4.6,5.2-6.9
					c0.4-0.6,0.8-1.2,1.2-1.8c0.2-0.3,0.4-0.6,0.6-0.9c0.5-0.8,1-1.5,1.4-2.2c0.2-0.3,0.4-0.7,0.6-1c0.2-0.3,0.3-0.5,0.4-0.8l0,0
					c0.2-0.4,0.4-0.8,0.6-1.1c0,0,0.1-0.1,0.1-0.1c0.1-0.3,0.3-0.5,0.4-0.8c0.4-0.7,0.7-1.4,1-2.1c0.1-0.3,0.3-0.6,0.4-0.8
					c0.4-1,0.8-1.9,1.2-2.8c0.1-0.3,0.2-0.6,0.3-0.9c0.4-1.2,0.8-2.4,1-3.6c0,0,0,0,0,0c0.2-0.8,0.3-1.5,0.4-2.2
					c0-0.2,0.1-0.4,0.1-0.6c0-0.1,0-0.2,0-0.3c0-0.2,0-0.4,0-0.7C689,146,689,145.5,688.9,145z"/>
			</g>
		</g>
	</g>
	<g id="misc_planets">
		<g>
			<image style="overflow:visible;" width="46" height="47" xlink:href="7A929178.png"  transform="matrix(1 0 0 1 127 37)">
			</image>
			<g>
				<circle class="st8" cx="150" cy="60.5" r="10.8"/>
			</g>
		</g>
		<g class="st9">
			<circle class="st0" cx="171.7" cy="336" r="19.5"/>
		</g>
		<g>
			
				<image style="overflow:visible;" width="72" height="71" xlink:href="7A929186.png"  transform="matrix(1 0 0 1 135.4601 300.4601)">
			</image>
			<g>
				<circle class="st10" cx="171.7" cy="336" r="10.8"/>
			</g>
		</g>
		<g>
			<circle class="st11" cx="836.7" cy="60.5" r="20.5"/>
		</g>
		<g>
			
				<image style="overflow:visible;" width="92" height="92" xlink:href="7A929189.png"  transform="matrix(1 0 0 1 790.5849 14.5849)">
			</image>
			<g>
				<circle class="st12" cx="836.7" cy="60.5" r="13.9"/>
			</g>
		</g>
		<g>
			
				<image style="overflow:visible;" width="58" height="58" xlink:href="7A92918A.png"  transform="matrix(1 0 0 1 798.2557 318.2557)">
			</image>
			<g>
				<circle class="st13" cx="827.1" cy="346.8" r="8.7"/>
			</g>
		</g>
		<g>
			<image style="overflow:visible;" width="18" height="19" xlink:href="7A929188.png"  transform="matrix(1 0 0 1 520 40)">
			</image>
			<g>
				<circle class="st14" cx="529" cy="49.7" r="5.8"/>
			</g>
		</g>
	</g>
	<g id="stars">
		
			<use xlink:href="#star"  width="340" height="340" x="-170" y="-170" transform="matrix(0.1163 0 0 -0.1163 410.5014 40.0331)" style="overflow:visible;opacity:0.83;"/>
		
			<use xlink:href="#star"  width="340" height="340" x="-170" y="-170" transform="matrix(6.735701e-02 0 0 -6.735701e-02 92.5014 257.8651)" style="overflow:visible;opacity:0.76;"/>
		
			<use xlink:href="#star"  width="340" height="340" x="-170" y="-170" transform="matrix(0.1384 0 0 -0.1384 198.3661 138.3665)" style="overflow:visible;opacity:0.44;"/>
		
			<use xlink:href="#star"  width="340" height="340" x="-170" y="-170" transform="matrix(3.142906e-02 0 0 -3.142906e-02 292.3661 315.6998)" style="overflow:visible;opacity:0.72;"/>
		
			<use xlink:href="#star"  width="340" height="340" x="-170" y="-170" transform="matrix(8.198059e-02 0 0 -8.198059e-02 303.6818 177.6418)" style="overflow:visible;opacity:0.51;"/>
		
			<use xlink:href="#star"  width="340" height="340" x="-170" y="-170" transform="matrix(3.240131e-02 -7.761671e-02 -7.761671e-02 -3.240131e-02 650.4041 47.1519)" style="overflow:visible;opacity:0.11;"/>
		
			<use xlink:href="#star"  width="340" height="340" x="-170" y="-170" transform="matrix(1.877108e-02 -4.496576e-02 -4.496576e-02 -1.877108e-02 707.2026 320.1458)" style="overflow:visible;opacity:0.72;"/>
		
			<use xlink:href="#star"  width="340" height="340" x="-170" y="-170" transform="matrix(4.233721e-02 -0.1014 -0.1014 -4.233721e-02 826.7159 126.5726)" style="overflow:visible;opacity:0.11;"/>
		
			<use xlink:href="#star"  width="340" height="340" x="-170" y="-170" transform="matrix(8.758664e-03 -2.098121e-02 -2.098121e-02 -8.758664e-03 801.5099 202.8387)" style="overflow:visible;opacity:0.53;"/>
		
			<use xlink:href="#star"  width="340" height="340" x="-170" y="-170" transform="matrix(2.284638e-02 -5.472807e-02 -5.472807e-02 -2.284638e-02 712.4995 156.8107)" style="overflow:visible;"/>
	</g>
	<g id="logo">
	</g>
</g>
<g id="promoted_x5F_header_xA0_Image_1_">
</g>
</svg>
