<?xml version="1.0" encoding="utf-8"?>
<svg id="master-artboard" viewBox="0 0 2800 1986.479248046875" version="1.1" xmlns="http://www.w3.org/2000/svg" x="0px" y="0px" width="2800px" height="1986.479248046875px" style="enable-background:new 0 0 2800 2000;"><rect id="ee-background" x="0" y="0" width="2800" height="1986.479248046875" style="fill: white; fill-opacity: 0; pointer-events: none;"/>

<linearGradient id="SVGID_1_" gradientUnits="userSpaceOnUse" x1="1400" y1="1695.8887" x2="1400" y2="21.3996">
	<stop offset="0.003" style="stop-color:#42354D"/>
	<stop offset="0.1502" style="stop-color:#493B53"/>
	<stop offset="0.478" style="stop-color:#51445C"/>
	<stop offset="1" style="stop-color:#54465E"/>
</linearGradient>
<path d="M 0 0 H 2800 V 2000 H 0 V 0 Z" class="st0" style="fill: url('#SVGID_1_');"/>
<g>
	<g>
		<path class="st1" d="M1161.2727,1587.7749h-16.5179v-43.9795c0-4.5614,3.6978-8.259,8.259-8.259l0,0&#10;&#9;&#9;&#9;c4.5613,0,8.2589,3.6976,8.2589,8.259V1587.7749z" style="fill: rgb(150, 131, 146);"/>
		<g>
			<path class="st1" d="M1127.9478,1515.8389c-1.3154,0-2.4175-1.0273-2.4937-2.3574l-3.0747-53.8262&#10;&#9;&#9;&#9;&#9;c-0.0537-0.9424,0.4282-1.8359,1.2461-2.3076c0.8179-0.4727,1.8315-0.4453,2.6216,0.0752l45.0771,29.5762&#10;&#9;&#9;&#9;&#9;c1.1543,0.7568,1.4761,2.3066,0.7188,3.4609c-0.7568,1.1553-2.3071,1.4756-3.4619,0.7188l-40.9268-26.8525l2.792,48.8701&#10;&#9;&#9;&#9;&#9;c0.0786,1.3789-0.9751,2.5596-2.3535,2.6387C1128.0444,1515.8379,1127.9961,1515.8389,1127.9478,1515.8389z" style="fill: rgb(150, 131, 146);"/>
			<path class="st2" d="M1097.0907,1522.3606c16.499,23.0513,48.1204,30.2516,73.1819,15.7823s34.6366-45.4543,22.9231-71.2687&#10;&#9;&#9;&#9;&#9;L1097.0907,1522.3606z" style="fill: rgb(183, 165, 179);"/>
			<path class="st2" d="M1130.0315,1468.4432L1130.0315,1468.4432c-2.3096,1.3335-5.2629,0.5421-6.5963-1.7675l-9.4479-16.364&#10;&#9;&#9;&#9;&#9;c-1.3334-2.3097-0.5421-5.2629,1.7676-6.5964l0,0c2.3096-1.3334,5.2628-0.5421,6.5963,1.7676l9.4478,16.364&#10;&#9;&#9;&#9;&#9;C1133.1324,1464.1565,1132.3411,1467.1099,1130.0315,1468.4432z" style="fill: rgb(183, 165, 179);"/>
		</g>
	</g>
	<path class="st2" d="M1244,1666c-3.3135,0-6-2.6865-6-6v-191c0-3.3135,2.6865-6,6-6s6,2.6865,6,6v191&#10;&#9;&#9;C1250,1663.3135,1247.3135,1666,1244,1666z" style="fill: rgb(183, 165, 179);"/>
	<path d="M 1302.989365 1734.5 A 177.378403 177.378403 0 0 1 1125.610962 1911.878403 A 177.378403 177.378403 0 0 1 948.232559 1734.5 A 177.378403 177.378403 0 0 1 1125.610962 1557.121597 A 177.378403 177.378403 0 0 1 1302.989365 1734.5 Z" class="st2" style="fill: rgb(183, 165, 179);"/>
	<path class="st1" d="M1125.611,1557.1216c-5.1202,0-10.1863,0.2295-15.1965,0.6548C1186.9243,1565.4865,1247,1641.657,1247,1734.5&#10;&#9;&#9;s-60.0757,169.0135-136.5856,176.7236c5.0103,0.4253,10.0763,0.6548,15.1965,0.6548c97.9634,0,177.3784-79.415,177.3784-177.3784&#10;&#9;&#9;S1223.5743,1557.1216,1125.611,1557.1216z" style="fill: rgb(150, 131, 146);"/>
</g>
<g>
	<path class="st3" d="M2416.5508,1565.821c-87.4758-81.2605-200.4023-89.1945-306.7559-91.9958&#10;&#9;&#9;c-86.4844-2.2782-175.1309-2.5457-256.5266,36.761c-49.4868,23.8975-95.5,62.1058-147.2079,74.9875&#10;&#9;&#9;c-102.1957,25.4597-209.9022-51.7859-309.3468-11.1891c-67.6001,27.5966-122.0699,106.9543-192.5321,113.976l1082.3351,84.4333&#10;&#9;&#9;c48.5667-36.9006,93.9126-81.4342,134.8157-132.4004c7.6814-9.5712,15.7336-20.8855,16.0313-34.9497&#10;&#9;&#9;C2437.7207,1588.5704,2426.8901,1575.4258,2416.5508,1565.821z" style="fill: rgb(158, 63, 63);"/>
	<path class="st4" d="M1102,1795L0,1767.0409V1411.533c22.62-10.6431,53.1-14.9016,80.27-11.2484&#10;&#9;&#9;c46.98,6.3212,85.46,29.2404,121.28,51.5541c35.82,22.3138,73.51,45.6554,120.14,53.1591&#10;&#9;&#9;c63.54,10.2278,128.06-11.0935,193.05-14.6061c114.41-6.1803,219.44,42.7694,306.53,95.3652&#10;&#9;&#9;c87.09,52.5887,171.09,112.8151,280.4399,137.304L1102,1795z" style="fill: rgb(183, 83, 81);"/>
	<path class="st5" d="M0,1489v511h2800v-511C1866.6667,1708.8461,933.3333,1708.8461,0,1489z" style="fill: rgb(209, 115, 105);"/>
	<path class="st5" d="M1030,1795L0,1772.2655v-289.0746c21.1421-8.6542,49.6306-12.1169,75.0255-9.1464&#10;&#9;&#9;c43.9105,5.1399,79.8764,23.7762,113.356,41.9203s68.7072,37.1238,112.2906,43.2252&#10;&#9;&#9;c59.3885,8.3165,119.6931-9.0205,180.4369-11.8767c106.9349-5.0254,205.1027,34.7771,286.5026,77.5444&#10;&#9;&#9;c81.3999,42.7616,159.9117,91.7335,262.1172,111.6462L1030,1795z" style="fill: rgb(209, 115, 105);"/>
	<path class="st5" d="M2800,1400.1899v227.97l-745.1099,123.76c-13.8701-18.6799-11.5001-45.77,0.1699-65.8899&#10;&#9;&#9;c11.6799-20.1301,30.97-34.5701,50.51-47.2001c59-38.15,125.25-65.0499,194.1399-78.85&#10;&#9;&#9;c60.3901-12.09,123.6201-14.47,180.0801-39.0701c49.8599-21.72,91.0601-59.3799,139.0601-84.95&#10;&#9;&#9;C2673.97,1406.59,2737.8599,1394.38,2800,1400.1899z" style="fill: rgb(209, 115, 105);"/>
</g>
<g>
	<path d="M 453 1882.5 A 116.5 32.5 0 0 1 336.5 1915 A 116.5 32.5 0 0 1 220 1882.5 A 116.5 32.5 0 0 1 336.5 1850 A 116.5 32.5 0 0 1 453 1882.5 Z" class="st6" style="fill: rgb(158, 68, 65);"/>
	<g>
		<path class="st7" d="M418.8875,1870.2369L418.8875,1870.2369L418,1850l-9.4639,5.2341&#10;&#9;&#9;&#9;c-16.3035-12.2227-49.9648-20.4769-88.7954-20.2286c-54.675,0.3495-98.8818,17.4208-98.7385,38.1298&#10;&#9;&#9;&#9;c0.1432,20.709,44.582,37.2136,99.2571,36.8641c54.675-0.3496,98.8818-17.4209,98.7385-38.1299&#10;&#9;&#9;&#9;C418.994,1871.3221,418.9525,1870.7783,418.8875,1870.2369z" style="fill: rgb(193, 98, 91);"/>
		
			<path d="M 419.006493 1862.105713 A 99.858299 39 0 0 1 319.148193 1901.105713 A 99.858299 39 0 0 1 219.289894 1862.105713 A 99.858299 39 0 0 1 319.148193 1823.105713 A 99.858299 39 0 0 1 419.006493 1862.105713 Z" transform="matrix(0.9924 -0.1232 0.1232 0.9924 -226.9079 53.483)" class="st8" style="fill: rgb(226, 136, 129);"/>
	</g>
	
		<path d="M 316 1850.411743 A 17 4.4118 0 0 1 299 1854.823543 A 17 4.4118 0 0 1 282 1850.411743 A 17 4.4118 0 0 1 299 1845.999943 A 17 4.4118 0 0 1 316 1850.411743 Z" transform="matrix(0.9789 -0.2043 0.2043 0.9789 -371.78 100.1321)" class="st5" style="fill: rgb(209, 115, 105);"/>
	
		<path d="M 351.060414 1871.160767 A 8.4399 4.4118 0 0 1 342.620514 1875.572567 A 8.4399 4.4118 0 0 1 334.180614 1871.160767 A 8.4399 4.4118 0 0 1 342.620514 1866.748967 A 8.4399 4.4118 0 0 1 351.060414 1871.160767 Z" transform="matrix(0.9789 -0.2043 0.2043 0.9789 -375.0997 109.4828)" class="st5" style="fill: rgb(209, 115, 105);"/>
</g>
<path d="M 1981.152252 1854.427612 A 463.186798 67.982002 0 0 1 1517.965454 1922.409615 A 463.186798 67.982002 0 0 1 1054.778656 1854.427612 A 463.186798 67.982002 0 0 1 1517.965454 1786.44561 A 463.186798 67.982002 0 0 1 1981.152252 1854.427612 Z" class="st9" style="fill: rgb(173, 85, 83);"/>
<g>
	<path d="M 2649.000107 1838.727295 A 139.583603 25.258101 0 0 1 2509.416504 1863.985395 A 139.583603 25.258101 0 0 1 2369.832901 1838.727295 A 139.583603 25.258101 0 0 1 2509.416504 1813.469194 A 139.583603 25.258101 0 0 1 2649.000107 1838.727295 Z" class="st6" style="fill: rgb(158, 68, 65);"/>
	<g>
		<path class="st7" d="M2608.1284,1829.1969L2608.1284,1829.1969l-1.0635-15.7277l-11.3389,4.0679&#10;&#9;&#9;&#9;c-19.5339-9.4991-59.865-15.9141-106.3896-15.7212c-65.5085,0.2716-118.4744,13.5391-118.3027,29.6334&#10;&#9;&#9;&#9;s53.4155,28.9214,118.9241,28.6498c65.5085-0.2717,118.4744-13.5391,118.3027-29.6334&#10;&#9;&#9;&#9;C2608.2561,1830.0403,2608.2063,1829.6176,2608.1284,1829.1969z" style="fill: rgb(193, 98, 91);"/>
		<path class="st10" d="M2482.8716,1792.7986c-65.575,5.2788-116.157,23.0249-112.9785,39.637&#10;&#9;&#9;&#9;c3.1782,16.6122,58.9136,25.7997,124.4885,20.5209c65.5747-5.2788,116.157-23.0249,112.9785-39.6371&#10;&#9;&#9;&#9;C2604.1816,1796.7073,2548.4463,1787.5198,2482.8716,1792.7986z" style="fill: rgb(214, 127, 120);"/>
	</g>
	<path class="st7" d="M2463.406,1810.4329c-11.0115,1.491-19.4551,4.2023-18.8586,6.0559&#10;&#9;&#9;c0.5964,1.8538,10.0071,2.1478,21.0188,0.6569c11.0117-1.4908,19.4551-4.2023,18.8586-6.0559&#10;&#9;&#9;S2474.4177,1808.942,2463.406,1810.4329z" style="fill: rgb(193, 98, 91);"/>
	<path class="st7" d="M2515.6697,1826.5585c-5.467,0.7402-9.4153,2.8429-8.8188,4.6967c0.5964,1.8536,5.512,2.7562,10.979,2.0161&#10;&#9;&#9;c5.4668-0.7402,9.4153-2.8429,8.8186-4.6967C2526.052,1826.7209,2521.1365,1825.8184,2515.6697,1826.5585z" style="fill: rgb(193, 98, 91);"/>
</g>
<g>
	<path d="M 2656 1917.253784 A 51.5 19 0 0 1 2604.5 1936.253784 A 51.5 19 0 0 1 2553 1917.253784 A 51.5 19 0 0 1 2604.5 1898.253784 A 51.5 19 0 0 1 2656 1917.253784 Z" class="st7" style="fill: rgb(193, 98, 91);"/>
	<path d="M 127.012402 1776.707397 A 33.807499 15.5688 0 0 1 93.204903 1792.276197 A 33.807499 15.5688 0 0 1 59.397404 1776.707397 A 33.807499 15.5688 0 0 1 93.204903 1761.138597 A 33.807499 15.5688 0 0 1 127.012402 1776.707397 Z" class="st7" style="fill: rgb(193, 98, 91);"/>
	<path d="M 582.089176 1927.981934 A 33.807499 15.5688 0 0 1 548.281677 1943.550734 A 33.807499 15.5688 0 0 1 514.474178 1927.981934 A 33.807499 15.5688 0 0 1 548.281677 1912.413134 A 33.807499 15.5688 0 0 1 582.089176 1927.981934 Z" class="st7" style="fill: rgb(193, 98, 91);"/>
	<path d="M 831.677176 1829.914917 A 16.903799 7.7844 0 0 1 814.773376 1837.699317 A 16.903799 7.7844 0 0 1 797.869577 1829.914917 A 16.903799 7.7844 0 0 1 814.773376 1822.130517 A 16.903799 7.7844 0 0 1 831.677176 1829.914917 Z" class="st7" style="fill: rgb(193, 98, 91);"/>
	<path d="M 601.986013 1734.5 A 16.903799 7.7844 0 0 1 585.082214 1742.2844 A 16.903799 7.7844 0 0 1 568.178415 1734.5 A 16.903799 7.7844 0 0 1 585.082214 1726.7156 A 16.903799 7.7844 0 0 1 601.986013 1734.5 Z" class="st7" style="fill: rgb(193, 98, 91);"/>
	<path d="M 2150.295048 1734.5 A 33.807499 15.5688 0 0 1 2116.487549 1750.0688 A 33.807499 15.5688 0 0 1 2082.68005 1734.5 A 33.807499 15.5688 0 0 1 2116.487549 1718.9312 A 33.807499 15.5688 0 0 1 2150.295048 1734.5 Z" class="st7" style="fill: rgb(193, 98, 91);"/>
</g>
<g>
	<path d="M 2506.68705 1682.577271 A 81.520302 22.930201 0 0 1 2425.166748 1705.507471 A 81.520302 22.930201 0 0 1 2343.646446 1682.577271 A 81.520302 22.930201 0 0 1 2425.166748 1659.64707 A 81.520302 22.930201 0 0 1 2506.68705 1682.577271 Z" class="st6" style="fill: rgb(158, 68, 65);"/>
	<path d="M 2486.229454 1673.809814 A 73.771202 26.302299 0 0 1 2412.458252 1700.112114 A 73.771202 26.302299 0 0 1 2338.68705 1673.809814 A 73.771202 26.302299 0 0 1 2412.458252 1647.507515 A 73.771202 26.302299 0 0 1 2486.229454 1673.809814 Z" class="st8" style="fill: rgb(226, 136, 129);"/>
	<path class="st7" d="M2458.6045,1653.2899c7.6631,4.1472,12.1267,9.1124,12.1267,14.4502&#10;&#9;&#9;c0,14.5262-33.0286,26.3022-73.7712,26.3022c-17.4653,0-33.51-2.1654-46.1462-5.7825&#10;&#9;&#9;c13.1917,7.1393,35.8726,11.8523,61.6445,11.8523c40.7427,0,73.7712-11.776,73.7712-26.3024&#10;&#9;&#9;C2486.2295,1665.5106,2475.4453,1658.1106,2458.6045,1653.2899z" style="fill: rgb(193, 98, 91);"/>
</g>
<path d="M 2082.679932 1878.102295 A 104.5 35.708801 0 0 1 1978.179932 1913.811096 A 104.5 35.708801 0 0 1 1873.679932 1878.102295 A 104.5 35.708801 0 0 1 1978.179932 1842.393494 A 104.5 35.708801 0 0 1 2082.679932 1878.102295 Z" class="st9" style="fill: rgb(173, 85, 83);"/>
<g>
	<path d="M 2128.487549 1209.666626 A 12 12 0 0 1 2116.487549 1221.666626 A 12 12 0 0 1 2104.487549 1209.666626 A 12 12 0 0 1 2116.487549 1197.666626 A 12 12 0 0 1 2128.487549 1209.666626 Z" class="st11" style="fill: rgb(218, 121, 145);"/>
	<path d="M 867.139709 1386.47168 A 12 12 0 0 1 855.139709 1398.47168 A 12 12 0 0 1 843.139709 1386.47168 A 12 12 0 0 1 855.139709 1374.47168 A 12 12 0 0 1 867.139709 1386.47168 Z" class="st11" style="fill: rgb(218, 121, 145);"/>
	<path d="M 843.677185 468.100891 A 12 12 0 0 1 831.677185 480.100891 A 12 12 0 0 1 819.677185 468.100891 A 12 12 0 0 1 831.677185 456.100891 A 12 12 0 0 1 843.677185 468.100891 Z" class="st12" style="fill: rgb(241, 180, 150);"/>
	<path d="M 380 318.083405 A 43.5 43.5 0 0 1 336.5 361.583405 A 43.5 43.5 0 0 1 293 318.083405 A 43.5 43.5 0 0 1 336.5 274.583405 A 43.5 43.5 0 0 1 380 318.083405 Z" class="st13" style="fill: rgb(172, 180, 197);"/>
	<path class="st14" d="M1304.1313,274.5834c-12.1658,6.239-17.2234,11.2968-23.4625,23.4625&#10;&#9;&#9;c-6.239-12.1657-11.2968-17.2234-23.4624-23.4625c12.1656-6.239,17.2234-11.2968,23.4624-23.4625&#10;&#9;&#9;C1286.908,263.2867,1291.9656,268.3444,1304.1313,274.5834z" style="fill: rgb(142, 112, 131);"/>
	<path class="st15" d="M1721.4498,414.0175c-12.1658,6.239-17.2234,11.2968-23.4625,23.4625&#10;&#9;&#9;c-6.239-12.1657-11.2968-17.2235-23.4624-23.4625c12.1656-6.239,17.2234-11.2968,23.4624-23.4625&#10;&#9;&#9;C1704.2264,402.7207,1709.2841,407.7784,1721.4498,414.0175z" style="fill: rgb(244, 237, 242);"/>
	<path class="st15" d="M878.6022,912.6803c-12.1657,6.239-17.2234,11.2968-23.4625,23.4625&#10;&#9;&#9;c-6.239-12.1657-11.2968-17.2234-23.4625-23.4625c12.1658-6.239,17.2235-11.2968,23.4625-23.4625&#10;&#9;&#9;C861.3787,901.3835,866.4365,906.4413,878.6022,912.6803z" style="fill: rgb(244, 237, 242);"/>
	<path class="st16" d="M2567.1877,928.8337c-7.3567,3.7728-10.415,6.8311-14.1877,14.1877&#10;&#9;&#9;c-3.7727-7.3566-6.8311-10.4149-14.1877-14.1877c7.3567-3.7727,10.415-6.8311,14.1877-14.1877&#10;&#9;&#9;C2556.7727,922.0026,2559.8311,925.061,2567.1877,928.8337z" style="fill: rgb(216, 156, 130);"/>
	<path class="st17" d="M394.1877,1311.144c-7.3566,3.7727-10.415,6.8311-14.1877,14.1876&#10;&#9;&#9;c-3.7727-7.3566-6.8311-10.4149-14.1877-14.1876c7.3566-3.7727,10.415-6.8312,14.1877-14.1877&#10;&#9;&#9;C383.7727,1304.3129,386.8311,1307.3713,394.1877,1311.144z" style="fill: rgb(254, 217, 156);"/>
	<path class="st15" d="M2549.925,1174.2041c-12.1658,6.239-17.2236,11.2968-23.4626,23.4625&#10;&#9;&#9;c-6.239-12.1658-11.2966-17.2235-23.4624-23.4625c12.1658-6.239,17.2234-11.2968,23.4624-23.4625&#10;&#9;&#9;C2532.7014,1162.9073,2537.7593,1167.9651,2549.925,1174.2041z" style="fill: rgb(244, 237, 242);"/>
	<g>
		<path d="M 586.898888 959.952881 A 100.375298 100.375298 0 0 1 486.52359 1060.328178 A 100.375298 100.375298 0 0 1 386.148293 959.952881 A 100.375298 100.375298 0 0 1 486.52359 859.577583 A 100.375298 100.375298 0 0 1 586.898888 959.952881 Z" class="st16" style="fill: rgb(216, 156, 130);"/>
		<path d="M 459.148298 911.957581 A 12.1667 12.1667 0 0 1 446.981598 924.124281 A 12.1667 12.1667 0 0 1 434.814898 911.957581 A 12.1667 12.1667 0 0 1 446.981598 899.79088 A 12.1667 12.1667 0 0 1 459.148298 911.957581 Z" class="st18" style="fill: rgb(188, 127, 105);"/>
		<path d="M 465.479208 975.037476 A 9.2488 9.2488 0 0 1 456.230408 984.286276 A 9.2488 9.2488 0 0 1 446.981607 975.037476 A 9.2488 9.2488 0 0 1 456.230408 965.788675 A 9.2488 9.2488 0 0 1 465.479208 975.037476 Z" class="st18" style="fill: rgb(188, 127, 105);"/>
		<path d="M 542.699816 923.541016 A 7.0833 7.0833 0 0 1 535.616516 930.624316 A 7.0833 7.0833 0 0 1 528.533216 923.541016 A 7.0833 7.0833 0 0 1 535.616516 916.457716 A 7.0833 7.0833 0 0 1 542.699816 923.541016 Z" class="st18" style="fill: rgb(188, 127, 105);"/>
		<path d="M 528.533216 1011.687805 A 10.3849 10.3849 0 0 1 518.148315 1022.072705 A 10.3849 10.3849 0 0 1 507.763415 1011.687805 A 10.3849 10.3849 0 0 1 518.148315 1001.302905 A 10.3849 10.3849 0 0 1 528.533216 1011.687805 Z" class="st18" style="fill: rgb(188, 127, 105);"/>
		<path d="M 438.866511 1015.73938 A 4.0516 4.0516 0 0 1 434.814911 1019.79098 A 4.0516 4.0516 0 0 1 430.763311 1015.73938 A 4.0516 4.0516 0 0 1 434.814911 1011.68778 A 4.0516 4.0516 0 0 1 438.866511 1015.73938 Z" class="st18" style="fill: rgb(188, 127, 105);"/>
		<path d="M 427.533198 943.124329 A 4.0516 4.0516 0 0 1 423.481598 947.175929 A 4.0516 4.0516 0 0 1 419.429998 943.124329 A 4.0516 4.0516 0 0 1 423.481598 939.072729 A 4.0516 4.0516 0 0 1 427.533198 943.124329 Z" class="st18" style="fill: rgb(188, 127, 105);"/>
	</g>
</g>
<g transform="matrix(0.2946179509162903, 0, 0, 0.2946179509162903, 1462.1518809884644, 1185.7835094084421)">
	<g>
		<path d="M 1956.889282 318.083405 H 2482.679993 V 663.1745 H 1956.889282 V 318.083405 Z" class="st11" style="fill: rgb(218, 121, 145);"/>
		<g>
			<path d="M 1956.889282 368.961304 H 2482.680054 V 414.017502 H 1956.889282 V 368.961304 Z" class="st15" style="fill: rgb(244, 237, 242);"/>
			<path d="M 1956.889282 468.100891 H 2482.680054 V 513.157089 H 1956.889282 V 468.100891 Z" class="st15" style="fill: rgb(244, 237, 242);"/>
			<path d="M 1956.889282 567.240479 H 2482.680054 V 612.296677 H 1956.889282 V 567.240479 Z" class="st15" style="fill: rgb(244, 237, 242);"/>
		</g>
	</g>
	<g>
		<path class="st19" d="M1832.1642,1156.8915h-48V855.8914h48c16.5686,0,30,13.4315,30,30v241.0001&#10;&#9;&#9;&#9;C1862.1642,1143.46,1848.7328,1156.8915,1832.1642,1156.8915z" style="fill: rgb(142, 128, 141);"/>
		<path class="st20" d="M1746.1549,751.1414h-133.9814c-47.2255,0-85.5093,38.2838-85.5093,85.5093v339.4815&#10;&#9;&#9;&#9;c0,47.2253,38.2838,85.5093,85.5093,85.5093h133.9814c47.2255,0,85.5093-38.2839,85.5093-85.5093V836.6507&#10;&#9;&#9;&#9;C1831.6642,789.4252,1793.3804,751.1414,1746.1549,751.1414z" style="fill: rgb(219, 210, 217);"/>
		<path class="st21" d="M1664.1549,751.1414h-133.9814c-47.2255,0-85.5093,38.2838-85.5093,85.5093v339.4815&#10;&#9;&#9;&#9;c0,47.2253,38.2838,85.5093,85.5093,85.5093h133.9814c47.2255,0,85.5093-38.2839,85.5093-85.5093V836.6507&#10;&#9;&#9;&#9;C1749.6642,789.4252,1711.3804,751.1414,1664.1549,751.1414z" style="fill: rgb(163, 150, 162);"/>
		<g>
			<path class="st22" d="M1803.4142,840.1414h-33.5c-8.1462,0-14.75,6.6038-14.75,14.75v33.5c0,8.1462,6.6038,14.75,14.75,14.75&#10;&#9;&#9;&#9;&#9;h33.5c8.1462,0,14.75-6.6038,14.75-14.75v-33.5C1818.1642,846.7452,1811.5604,840.1414,1803.4142,840.1414z" style="fill: rgb(198, 185, 196);"/>
			<path class="st2" d="M1815.6641,854.6416c-3.8662,0-7-3.1338-7-7v-96c0-3.8662,3.1338-7,7-7s7,3.1338,7,7v96&#10;&#9;&#9;&#9;&#9;C1822.6641,851.5078,1819.5303,854.6416,1815.6641,854.6416z" style="fill: rgb(183, 165, 179);"/>
			<path class="st2" d="M1819.4142,840.1414h-33.5c-8.1462,0-14.75,6.6038-14.75,14.75v33.5c0,8.1462,6.6038,14.75,14.75,14.75h33.5&#10;&#9;&#9;&#9;&#9;c8.1462,0,14.75-6.6038,14.75-14.75v-33.5C1834.1642,846.7452,1827.5604,840.1414,1819.4142,840.1414z" style="fill: rgb(183, 165, 179);"/>
			<path class="st23" d="M1802.6641,886.9868c-2.1611,0-4.1836-1.0635-5.4082-2.8447l-12.0762-17.5654h0.001&#10;&#9;&#9;&#9;&#9;c-1.3857-2.0137-1.5391-4.6089-0.4014-6.7725c1.1387-2.1636,3.3643-3.5078,5.8086-3.5078h24.1523&#10;&#9;&#9;&#9;&#9;c2.4453,0,4.6709,1.3442,5.8086,3.5078c1.1377,2.1631,0.9844,4.7583-0.4014,6.7725l-12.0752,17.5654&#10;&#9;&#9;&#9;&#9;C1806.8477,885.9233,1804.8252,886.9868,1802.6641,886.9868z M1790.5879,861.2964c-0.8516,0-1.251,0.584-1.3828,0.8354&#10;&#9;&#9;&#9;&#9;c-0.1318,0.251-0.3867,0.9106,0.0947,1.6118c0,0,0,0,0.001,0l12.0762,17.5654c0.4199,0.6118,1.04,0.6777,1.2871,0.6777&#10;&#9;&#9;&#9;&#9;s0.8672-0.0659,1.2871-0.6777l12.0762-17.5654c0.4834-0.7017,0.2285-1.3613,0.0957-1.6123&#10;&#9;&#9;&#9;&#9;c-0.1318-0.251-0.5313-0.835-1.3828-0.835H1790.5879z" style="fill: rgb(147, 127, 138);"/>
		</g>
	</g>
	<path class="st15" d="M1365.4019,1838.5566c-4.7983,0-9.6572-0.4023-14.5469-1.2354&#10;&#9;&#9;c-46.8218-7.9775-78.3115-52.4014-70.334-99.2227l86.3647-506.9014c7.9775-46.8232,52.4014-78.3115,99.2227-70.334&#10;&#9;&#9;s78.3115,52.4014,70.334,99.2227l-86.3652,506.9014C1442.9336,1808.9189,1406.5527,1838.5566,1365.4019,1838.5566z" style="fill: rgb(244, 237, 242);"/>
	<path class="st20" d="M1476.6565,1163.3455c25.6274,18.6157,39.9618,50.7345,34.2814,84.0736l-86.3652,506.9014&#10;&#9;&#9;c-7.1436,41.9316-43.5244,71.5693-84.6753,71.5693c-4.7983,0-9.6572-0.4023-14.5469-1.2354&#10;&#9;&#9;c-3.6113-0.6154-7.1306-1.4489-10.5485-2.4823c10.3635,7.5282,22.5706,12.8521,36.053,15.1492&#10;&#9;&#9;c4.8896,0.833,9.7485,1.2354,14.5469,1.2354c41.1509,0,77.5317-29.6377,84.6753-71.5693l86.3652-506.9014&#10;&#9;&#9;C1543.8047,1216.8759,1517.5516,1175.7092,1476.6565,1163.3455z" style="fill: rgb(219, 210, 217);"/>
	<path class="st20" d="M1702.749,1857.6465c-40.499,0-76.5684-28.7324-84.3965-69.9814l-91.5459-482.4121&#10;&#9;&#9;c-8.8555-46.6641,21.7949-91.6709,68.458-100.5264c46.6719-8.8535,91.6709,21.7949,100.5264,68.458l91.5459,482.4121&#10;&#9;&#9;c8.8555,46.6641-21.7949,91.6709-68.458,100.5264C1713.4639,1857.1504,1708.0645,1857.6465,1702.749,1857.6465z" style="fill: rgb(219, 210, 217);"/>
	<path class="st24" d="M1373.8562,930.7942L1373.8562,930.7942c-10.6315-8.7016-26.3038-7.137-35.0054,3.4945l-26.7131,32.6381&#10;&#9;&#9;c-8.7015,10.6315-7.137,26.3038,3.4945,35.0054l0,0c10.6315,8.7015,26.304,7.137,35.0054-3.4945l26.7133-32.6381&#10;&#9;&#9;C1386.0522,955.1681,1384.4877,939.4957,1373.8562,930.7942z" style="fill: rgb(218, 195, 212);"/>
	<path class="st25" d="M1275.627,1191.1865c-14.936,0-29.9585-5.002-42.3682-15.2637&#10;&#9;&#9;c-28.3218-23.4199-32.2954-65.3652-8.8755-93.6865l129-156c23.4194-28.3218,65.3647-32.2964,93.686-8.8755&#10;&#9;&#9;c28.3223,23.4194,32.2959,65.3643,8.876,93.686l-129.0005,156C1313.7871,1182.959,1294.7788,1191.1865,1275.627,1191.1865z" style="fill: rgb(221, 212, 219);"/>
	<g>
		<path d="M 1755.16423 708.641418 A 216.129807 216.129807 0 0 1 1539.034424 924.771225 A 216.129807 216.129807 0 0 1 1322.904617 708.641418 A 216.129807 216.129807 0 0 1 1539.034424 492.511612 A 216.129807 216.129807 0 0 1 1755.16423 708.641418 Z" class="st15" style="fill: rgb(244, 237, 242);"/>
		<path class="st26" d="M1623.021,509.4387c-92.4584,13.3542-163.501,92.9064-163.501,189.0634&#10;&#9;&#9;&#9;c0,105.5129,85.5352,191.0481,191.0481,191.0481c2.3278,0,4.6421-0.0566,6.9497-0.1392&#10;&#9;&#9;&#9;c58.8075-38.6232,97.6464-105.1553,97.6464-180.7695C1755.1642,619.0637,1700.6678,542.2157,1623.021,509.4387z" style="fill: rgb(234, 229, 233);"/>
		<path d="M 1740.221973 740.127014 A 50.163502 50.163502 0 0 1 1690.058472 790.290516 A 50.163502 50.163502 0 0 1 1639.89497 740.127014 A 50.163502 50.163502 0 0 1 1690.058472 689.963512 A 50.163502 50.163502 0 0 1 1740.221973 740.127014 Z" class="st27" style="fill: rgb(216, 206, 213);"/>
		<path d="M 1682.587234 735.190674 A 185.711502 189.580505 0 0 1 1496.875732 924.771179 A 185.711502 189.580505 0 0 1 1311.16423 735.190674 A 185.711502 189.580505 0 0 1 1496.875732 545.610168 A 185.711502 189.580505 0 0 1 1682.587234 735.190674 Z" class="st28" style="fill: rgb(97, 66, 83);"/>
		<path class="st29" d="M1325.0392,735.1907c0-103.496,78.2087-187.6099,175.3713-189.5349&#10;&#9;&#9;&#9;c-1.1766-0.0224-2.3529-0.0457-3.5348-0.0457c-102.5657,0-185.7115,84.8781-185.7115,189.5806s83.1459,189.5805,185.7115,189.5805&#10;&#9;&#9;&#9;c1.1819,0,2.3582-0.0232,3.5348-0.0456C1403.2479,922.8005,1325.0392,838.6867,1325.0392,735.1907z" style="fill: rgb(158, 126, 145);"/>
		<path class="st30" d="M1550.7538,553.7243c-54.7274,33.6006-91.2338,93.995-91.2338,162.9219&#10;&#9;&#9;&#9;c0,84.8809,55.3606,156.8197,131.9396,181.7133c54.5509-33.024,91.1277-93.7312,91.1277-163.1688&#10;&#9;&#9;&#9;C1682.5873,649.6174,1627.0427,577.2977,1550.7538,553.7243z" style="fill: rgb(81, 54, 70);"/>
		<g>
			<path d="M 1733.818043 730.521179 A 50.163502 50.163502 0 0 1 1683.654541 780.684681 A 50.163502 50.163502 0 0 1 1633.491039 730.521179 A 50.163502 50.163502 0 0 1 1683.654541 680.357677 A 50.163502 50.163502 0 0 1 1733.818043 730.521179 Z" class="st15" style="fill: rgb(244, 237, 242);"/>
			<path class="st31" d="M1683.6548,763.9632c-18.4402,0-33.443-15.0017-33.443-33.442s15.0028-33.442,33.443-33.442&#10;&#9;&#9;&#9;&#9;s33.442,15.0017,33.442,33.442S1702.095,763.9632,1683.6548,763.9632z M1683.6548,704.2451&#10;&#9;&#9;&#9;&#9;c-14.4889,0-26.2762,11.7878-26.2762,26.2762s11.7874,26.2762,26.2762,26.2762c14.4879,0,26.2751-11.7878,26.2751-26.2762&#10;&#9;&#9;&#9;&#9;S1698.1427,704.2451,1683.6548,704.2451z" style="fill: rgb(206, 196, 204);"/>
			<g>
				<path class="st31" d="M1694.4039,726.9379h-21.4983c-1.9794,0-3.5834-1.6041-3.5834-3.5829c0-1.9788,1.604-3.5829,3.5834-3.5829&#10;&#9;&#9;&#9;&#9;&#9;h21.4983c1.9794,0,3.5834,1.6041,3.5834,3.5829C1697.9873,725.3337,1696.3833,726.9379,1694.4039,726.9379z" style="fill: rgb(206, 196, 204);"/>
				<path class="st31" d="M1694.4039,741.2704h-21.4983c-1.9794,0-3.5834-1.6041-3.5834-3.5828c0-1.9788,1.604-3.5829,3.5834-3.5829&#10;&#9;&#9;&#9;&#9;&#9;h21.4983c1.9794,0,3.5834,1.6041,3.5834,3.5829C1697.9873,739.6663,1696.3833,741.2704,1694.4039,741.2704z" style="fill: rgb(206, 196, 204);"/>
			</g>
		</g>
		
			<path d="M 1406.105402 616.816223 A 18.875299 11.4039 0 0 1 1387.230103 628.220123 A 18.875299 11.4039 0 0 1 1368.354803 616.816223 A 18.875299 11.4039 0 0 1 1387.230103 605.412323 A 18.875299 11.4039 0 0 1 1406.105402 616.816223 Z" transform="matrix(0.7361 -0.6768 0.6768 0.7361 -51.4481 1101.6613)" class="st32" style="fill: rgb(112, 84, 101);"/>
		
			<path d="M 1380.483491 671.751282 A 9.0123 8.1906 0 0 1 1371.471191 679.941882 A 9.0123 8.1906 0 0 1 1362.458892 671.751282 A 9.0123 8.1906 0 0 1 1371.471191 663.560681 A 9.0123 8.1906 0 0 1 1380.483491 671.751282 Z" transform="matrix(0.7361 -0.6768 0.6768 0.7361 -92.7876 1105.49)" class="st32" style="fill: rgb(112, 84, 101);"/>
	</g>
	<path class="st20" d="M1315.4482,876.5112L1315.4482,876.5112c0,17.8774,14.4924,32.3699,32.3698,32.3699h360.6924&#10;&#9;&#9;c17.8773,0,32.3698-14.4925,32.3698-32.3698v-0.0001c0-17.8773-14.4924-32.3698-32.3698-32.3698H1347.818&#10;&#9;&#9;C1329.9407,844.1414,1315.4482,858.6339,1315.4482,876.5112z" style="fill: rgb(219, 210, 217);"/>
	<path class="st22" d="M1510.4482,876.5112L1510.4482,876.5112c0,17.8774,14.4924,32.3699,32.3698,32.3699h165.6924&#10;&#9;&#9;c17.8773,0,32.3698-14.4925,32.3698-32.3698v-0.0001c0-17.8773-14.4924-32.3698-32.3698-32.3698H1542.818&#10;&#9;&#9;C1524.9407,844.1414,1510.4482,858.6339,1510.4482,876.5112z" style="fill: rgb(198, 185, 196);"/>
	<path class="st15" d="M1347.4481,876.5113v-0.0001c0-17.8773,14.4926-32.3698,32.3699-32.3698h-32&#10;&#9;&#9;c-17.8773,0-32.3699,14.4924-32.3699,32.3698v0.0001c0,17.8773,14.4926,32.3698,32.3699,32.3698h32&#10;&#9;&#9;C1361.9407,908.881,1347.4481,894.3886,1347.4481,876.5113z" style="fill: rgb(244, 237, 242);"/>
	<path class="st15" d="M1528.1644,1341.1415h-0.0004c-96.1971,0-174.1803-77.9833-174.1803-174.1803V908.8811h348.361v258.0801&#10;&#9;&#9;C1702.3447,1263.1582,1624.3615,1341.1415,1528.1644,1341.1415z" style="fill: rgb(244, 237, 242);"/>
	<path class="st20" d="M1597.1642,908.881v310.6703c0,58.9602-41.9678,108.1132-97.6592,119.2297&#10;&#9;&#9;c9.3252,1.5439,18.8961,2.3604,28.6589,2.3604h0.0005c96.197,0,174.1802-77.9832,174.1802-174.1803V908.881H1597.1642z" style="fill: rgb(219, 210, 217);"/>
	<path class="st15" d="M1783.4854,1170.1846c-16.6602,0-33.335-6.2158-46.2559-18.7129l-116.8281-113&#10;&#9;&#9;c-26.416-25.5498-27.1172-67.6768-1.5674-94.0928c25.5508-26.416,67.6768-27.1177,94.0928-1.5674l116.8281,113&#10;&#9;&#9;c26.416,25.5498,27.1172,67.6768,1.5674,94.0928C1818.2695,1163.3994,1800.8857,1170.1846,1783.4854,1170.1846z" style="fill: rgb(244, 237, 242);"/>
	<path class="st15" d="M1783.5547,1170.1953c-22.7754,0-44.957-11.6992-57.3701-32.7344&#10;&#9;&#9;c-18.6787-31.6494-8.1621-72.4492,23.4883-91.127l132.1719-78c31.6494-18.6787,72.4502-8.1621,91.127,23.4878&#10;&#9;&#9;c18.6787,31.6499,8.1621,72.4497-23.4883,91.1274l-132.1719,78C1806.6963,1167.2139,1795.0488,1170.1953,1783.5547,1170.1953z" style="fill: rgb(244, 237, 242);"/>
	<path class="st33" d="M1882.1973,1116.4424c-24.3018,0-47.9688-12.4814-61.2139-34.9258&#10;&#9;&#9;c-19.9287-33.7695-8.709-77.3018,25.0615-97.231l33.5342-19.7905c33.7705-19.9287,77.3018-8.7085,97.2314,25.061&#10;&#9;&#9;c19.9287,33.77,8.709,77.3022-25.0615,97.2319l-33.5342,19.79C1906.8887,1113.2617,1894.46,1116.4424,1882.1973,1116.4424z" style="fill: rgb(234, 225, 231);"/>
	<path d="M 2037.481476 999.262329 A 82.6586 82.6586 0 0 1 1954.822876 1081.920929 A 82.6586 82.6586 0 0 1 1872.164276 999.262329 A 82.6586 82.6586 0 0 1 1954.822876 916.603729 A 82.6586 82.6586 0 0 1 2037.481476 999.262329 Z" class="st20" style="fill: rgb(219, 210, 217);"/>
	<path class="st22" d="M2012.6838,1056.0901h-47.2704c-30.3865,0-55.0197-24.6332-55.0197-55.0197v-94.7991h102.29V1056.0901z" style="fill: rgb(198, 185, 196);"/>
	<path class="st20" d="M1956.8896,1889.0244c-12.4268,0-22.5-10.0732-22.5-22.5V318.0835c0-12.4263,10.0732-22.5,22.5-22.5&#10;&#9;&#9;s22.5,10.0737,22.5,22.5v1548.4409C1979.3896,1878.9512,1969.3164,1889.0244,1956.8896,1889.0244z" style="fill: rgb(219, 210, 217);"/>
	<path class="st20" d="M1992.3846,1077.788h-27.5439V895.8941h27.5439c27.8409,0,50.4105,22.5696,50.4105,50.4106v81.0726&#10;&#9;&#9;C2042.7952,1055.2184,2020.2256,1077.788,1992.3846,1077.788z" style="fill: rgb(219, 210, 217);"/>
	<g>
		<path class="st15" d="M2007.9941,941.7935h-49.946c-12.6234,0-22.8567-10.2332-22.8567-22.8566v-0.0001&#10;&#9;&#9;&#9;c0-12.6234,10.2333-22.8566,22.8567-22.8566h49.946c12.6234,0,22.8567,10.2333,22.8567,22.8566v0.0001&#10;&#9;&#9;&#9;C2030.8508,931.5602,2020.6176,941.7935,2007.9941,941.7935z" style="fill: rgb(244, 237, 242);"/>
		<path class="st20" d="M2007.9941,896.0801h-14.4652c12.6233,0,22.8564,10.2333,22.8564,22.8566l0,0&#10;&#9;&#9;&#9;c0,12.6234-10.2332,22.8568-22.8564,22.8568h14.4652c12.6233,0,22.8566-10.2333,22.8566-22.8568l0,0&#10;&#9;&#9;&#9;C2030.8507,906.3135,2020.6174,896.0801,2007.9941,896.0801z" style="fill: rgb(219, 210, 217);"/>
		<path class="st15" d="M2009.2789,987.6467h-49.946c-12.6234,0-22.8567-10.2333-22.8567-22.8566V964.79&#10;&#9;&#9;&#9;c0-12.6234,10.2333-22.8566,22.8567-22.8566h49.946c12.6234,0,22.8567,10.2333,22.8567,22.8566v0.0001&#10;&#9;&#9;&#9;C2032.1356,977.4135,2021.9023,987.6467,2009.2789,987.6467z" style="fill: rgb(244, 237, 242);"/>
		<path class="st15" d="M2006.1254,1033.5h-49.9462c-12.6233,0-22.8566-10.2333-22.8566-22.8566v-0.0001&#10;&#9;&#9;&#9;c0-12.6234,10.2333-22.8566,22.8566-22.8566h49.9462c12.6233,0,22.8566,10.2332,22.8566,22.8566v0.0001&#10;&#9;&#9;&#9;C2028.9819,1023.2667,2018.7487,1033.5,2006.1254,1033.5z" style="fill: rgb(244, 237, 242);"/>
		<path class="st15" d="M1996.9197,1077.5671h-47.9946c-12.1301,0-21.9636-9.8335-21.9636-21.9636l0,0&#10;&#9;&#9;&#9;c0-12.1301,9.8335-21.9636,21.9636-21.9636h47.9946c12.1301,0,21.9636,9.8335,21.9636,21.9636l0,0&#10;&#9;&#9;&#9;C2018.8833,1067.7336,2009.0498,1077.5671,1996.9197,1077.5671z" style="fill: rgb(244, 237, 242);"/>
		<path class="st20" d="M2009.2789,941.9334h-22.7311c12.6233,0,22.8567,10.2333,22.8567,22.8566l0,0&#10;&#9;&#9;&#9;c0,12.6235-10.2334,22.8568-22.8567,22.8568h22.7311c12.6233,0,22.8567-10.2333,22.8567-22.8568l0,0&#10;&#9;&#9;&#9;C2032.1356,952.1667,2021.9022,941.9334,2009.2789,941.9334z" style="fill: rgb(219, 210, 217);"/>
		<path class="st20" d="M2006.1252,987.7866h-22.7311c12.6235,0,22.8567,10.2333,22.8567,22.8566v0.0001&#10;&#9;&#9;&#9;c0,12.6234-10.2332,22.8566-22.8567,22.8566h22.7311c12.6235,0,22.8567-10.2332,22.8567-22.8566v-0.0001&#10;&#9;&#9;&#9;C2028.9819,998.02,2018.7488,987.7866,2006.1252,987.7866z" style="fill: rgb(219, 210, 217);"/>
		<path class="st20" d="M1996.9197,1033.64h-22.7311c12.1301,0,21.9635,9.8334,21.9635,21.9635l0,0&#10;&#9;&#9;&#9;c0,12.1301-9.8334,21.9636-21.9635,21.9636h22.7311c12.1302,0,21.9636-9.8335,21.9636-21.9636l0,0&#10;&#9;&#9;&#9;C2018.8833,1043.4734,2009.0499,1033.64,1996.9197,1033.64z" style="fill: rgb(219, 210, 217);"/>
	</g>
	<path class="st15" d="M1910.7061,1031.2925L1910.7061,1031.2925c-14.4385,0-26.1431-11.7046-26.1431-26.143v-72.9254&#10;&#9;&#9;c0-14.4384,11.7046-26.1431,26.1431-26.1431l0,0c14.4385,0,26.1431,11.7047,26.1431,26.1431v72.9254&#10;&#9;&#9;C1936.8491,1019.5879,1925.1445,1031.2925,1910.7061,1031.2925z" style="fill: rgb(244, 237, 242);"/>
	<path class="st15" d="M1275.7148,1191.1885c-20.2041,0-40.1621-9.166-53.2383-26.5586l-103-137&#10;&#9;&#9;c-22.085-29.375-16.1748-71.0913,13.1997-93.1758c29.3745-22.084,71.0908-16.1758,93.1753,13.1997l103,136.9995&#10;&#9;&#9;c22.085,29.375,16.1748,71.0908-13.1997,93.1758C1303.6699,1186.8379,1289.6338,1191.1885,1275.7148,1191.1885z" style="fill: rgb(244, 237, 242);"/>
	<path class="st33" d="M1201.6025,1097.0635c-21.5576,0-42.8516-9.7793-56.8037-28.3369l-28.8848-38.418&#10;&#9;&#9;c-23.564-31.3423-17.2588-75.8525,14.083-99.4165c31.3418-23.5664,75.8525-17.2598,99.417,14.0825l28.8838,38.418&#10;&#9;&#9;c23.5645,31.3418,17.2593,75.8525-14.0825,99.417C1231.4307,1092.4209,1216.4536,1097.0635,1201.6025,1097.0635z" style="fill: rgb(234, 225, 231);"/>
	<path class="st20" d="M1205.0442,963.3314L1205.0442,963.3314c-10.7804-8.9146-12.293-24.8804-3.3784-35.6608l45.0255-54.4495&#10;&#9;&#9;c8.9146-10.7804,24.8805-12.2929,35.6609-3.3784l0,0c10.7804,8.9146,12.293,24.8804,3.3784,35.6608l-45.0256,54.4495&#10;&#9;&#9;C1231.7904,970.7335,1215.8246,972.246,1205.0442,963.3314z" style="fill: rgb(219, 210, 217);"/>
	<g>
		<g>
			<g>
				<path class="st31" d="M1188.6748,824.499c-4.1948,0-8.0332-2.7993-9.1704-7.0435l-21.5928-80.5869&#10;&#9;&#9;&#9;&#9;&#9;c-1.3579-5.0679,1.6494-10.2769,6.7173-11.6348c5.0708-1.3604,10.2778,1.6499,11.6353,6.7173l21.5928,80.5864&#10;&#9;&#9;&#9;&#9;&#9;c1.3579,5.0684-1.6494,10.2773-6.7173,11.6353C1190.3159,824.3936,1189.4883,824.499,1188.6748,824.499z" style="fill: rgb(206, 196, 204);"/>
				<path class="st24" d="M1188.6724,828c-5.7397,0-10.9927-3.8306-12.5488-9.6392l-3.0059-11.2188&#10;&#9;&#9;&#9;&#9;&#9;c-1.8579-6.9351,2.2578-14.063,9.1929-15.9214c6.9312-1.8555,14.0635,2.2573,15.9214,9.1929l3.0059,11.2188&#10;&#9;&#9;&#9;&#9;&#9;c1.8579,6.9351-2.2578,14.063-9.1929,15.9214C1190.9185,827.8555,1189.7861,828,1188.6724,828z" style="fill: rgb(218, 195, 212);"/>
			</g>
			<path class="st34" d="M1262.3394,999.8756c-2.0809,0.5594-4.1714,0.8245-6.2327,0.8245c-10.62,0-20.3469-7.0865-23.2227-17.8341&#10;&#9;&#9;&#9;&#9;l-38.1714-142.4481c-3.4353-12.8284,4.1715-26.0103,16.9999-29.4553c2.0809-0.5594,4.1715-0.8245,6.2328-0.8245&#10;&#9;&#9;&#9;&#9;c10.62,0,20.3468,7.0865,23.2227,17.8342l38.1713,142.4479C1282.7745,983.2487,1275.1678,996.4403,1262.3394,999.8756z" style="fill: rgb(193, 171, 188);"/>
			<path class="st24" d="M1232.884,982.866l-38.1714-142.4481c-3.4353-12.8284,4.1715-26.0103,16.9999-29.4553&#10;&#9;&#9;&#9;&#9;c2.0809-0.5594,4.1715-0.8245,6.2328-0.8245h-94.226c-2.0613,0-4.1517,0.2651-6.2327,0.8245&#10;&#9;&#9;&#9;&#9;c-12.8285,3.445-20.4352,16.6269-16.9999,29.4553l38.1713,142.4481c2.8759,10.7476,12.6027,17.8341,23.2227,17.8341h94.226&#10;&#9;&#9;&#9;&#9;C1245.4867,1000.7001,1235.7598,993.6135,1232.884,982.866z" style="fill: rgb(218, 195, 212);"/>
			<path class="st34" d="M1256.1064,1001.2002c-11.0894,0-20.8374-7.4863-23.7056-18.2051L1194.23,840.5474&#10;&#9;&#9;&#9;&#9;c-3.5-13.0698,4.2842-26.5581,17.3525-30.0679c2.0781-0.5581,4.2188-0.8413,6.3628-0.8413&#10;&#9;&#9;&#9;&#9;c11.0894,0,20.8374,7.4858,23.7056,18.2046l38.1714,142.4482c1.6963,6.334,0.8257,12.9502-2.4512,18.6294&#10;&#9;&#9;&#9;&#9;c-3.2773,5.6802-8.5698,9.7422-14.9023,11.438h0.0005C1260.3916,1000.917,1258.251,1001.2002,1256.1064,1001.2002z&#10;&#9;&#9;&#9;&#9; M1217.9453,810.6382c-2.0562,0-4.1099,0.2715-6.103,0.8071c-12.5366,3.3667-20.0039,16.3062-16.6465,28.8433l38.1709,142.4478&#10;&#9;&#9;&#9;&#9;c2.7515,10.2827,12.1025,17.4639,22.7397,17.4639c2.0566,0,4.1104-0.2715,6.103-0.8076h0.0005&#10;&#9;&#9;&#9;&#9;c6.0747-1.6265,11.1514-5.5234,14.2954-10.9722c3.1431-5.4478,3.978-11.7944,2.3511-17.8706l-38.1714-142.4482&#10;&#9;&#9;&#9;&#9;C1237.9336,817.8193,1228.5825,810.6382,1217.9453,810.6382z" style="fill: rgb(193, 171, 188);"/>
		</g>
		<g>
			<path class="st15" d="M1108.7554,786.541c-0.7046,0-1.4053-0.2964-1.8999-0.874&#10;&#9;&#9;&#9;&#9;c-12.8926-15.0566-19.9932-34.2539-19.9932-54.0562c0-19.793,7.1006-38.9854,19.9932-54.042&#10;&#9;&#9;&#9;&#9;c0.8989-1.0503,2.4761-1.1714,3.5249-0.2729c1.0488,0.8979,1.1709,2.4761,0.2729,3.5249&#10;&#9;&#9;&#9;&#9;c-12.1177,14.1514-18.791,32.189-18.791,50.79c0,18.6104,6.6733,36.6528,18.791,50.8042&#10;&#9;&#9;&#9;&#9;c0.8979,1.0488,0.7759,2.627-0.2729,3.5249C1109.9092,786.3433,1109.3311,786.541,1108.7554,786.541z" style="fill: rgb(244, 237, 242);"/>
			<path class="st15" d="M1231.3721,786.541c-0.5757,0-1.1538-0.1973-1.625-0.6011c-1.0488-0.8979-1.1709-2.4761-0.2729-3.5249&#10;&#9;&#9;&#9;&#9;c12.1177-14.1514,18.791-32.1938,18.791-50.8042c0-18.6011-6.6733-36.6387-18.791-50.79&#10;&#9;&#9;&#9;&#9;c-0.8979-1.0488-0.7759-2.627,0.2729-3.5249c1.0479-0.8975,2.626-0.7773,3.5249,0.2729&#10;&#9;&#9;&#9;&#9;c12.8926,15.0566,19.9932,34.249,19.9932,54.042c0,19.8022-7.1006,38.9995-19.9932,54.0562&#10;&#9;&#9;&#9;&#9;C1232.7773,786.2446,1232.0767,786.541,1231.3721,786.541z" style="fill: rgb(244, 237, 242);"/>
			<path class="st15" d="M1133.1353,767.8857c-0.6758,0-1.3496-0.2725-1.8423-0.8096&#10;&#9;&#9;&#9;&#9;c-8.9058-9.7051-13.8101-22.2998-13.8101-35.4644c0-13.1567,4.9043-25.7471,13.8101-35.4521&#10;&#9;&#9;&#9;&#9;c0.9326-1.0171,2.5142-1.0854,3.5322-0.1514c1.0171,0.9331,1.085,2.5146,0.1514,3.5322&#10;&#9;&#9;&#9;&#9;c-8.0566,8.7798-12.4937,20.1699-12.4937,32.0713c0,11.9092,4.437,23.3037,12.4937,32.0835&#10;&#9;&#9;&#9;&#9;c0.9336,1.0176,0.8657,2.5991-0.1514,3.5322C1134.3452,767.6685,1133.7393,767.8857,1133.1353,767.8857z" style="fill: rgb(244, 237, 242);"/>
			<path class="st15" d="M1207.0039,767.8857c-0.603,0-1.2075-0.2168-1.687-0.6558c-1.0186-0.9316-1.0889-2.5132-0.1567-3.5317&#10;&#9;&#9;&#9;&#9;c8.0508-8.7988,12.4844-20.1938,12.4844-32.0864c0-11.8843-4.4336-23.2754-12.4844-32.0742&#10;&#9;&#9;&#9;&#9;c-0.9321-1.0186-0.8618-2.6001,0.1567-3.5317c1.0181-0.9316,2.5991-0.8623,3.5317,0.1567&#10;&#9;&#9;&#9;&#9;c8.8965,9.7227,13.7959,22.312,13.7959,35.4492c0,13.145-4.8994,25.7388-13.7959,35.4614&#10;&#9;&#9;&#9;&#9;C1208.356,767.6123,1207.6807,767.8857,1207.0039,767.8857z" style="fill: rgb(244, 237, 242);"/>
		</g>
	</g>
	<g>
		<path class="st22" d="M1527.6646,1122.1415h-152.0007c-10.7693,0-19.4996-8.7303-19.4996-19.4996V988.6411&#10;&#9;&#9;&#9;c0-10.7693,8.7303-19.4996,19.4996-19.4996h152.0007c10.7694,0,19.4996,8.7303,19.4996,19.4996v114.0008&#10;&#9;&#9;&#9;C1547.1642,1113.4111,1538.434,1122.1415,1527.6646,1122.1415z" style="fill: rgb(198, 185, 196);"/>
		<path class="st26" d="M1503.6646,1122.1415h-152.0007c-10.7693,0-19.4996-8.7303-19.4996-19.4996V988.6411&#10;&#9;&#9;&#9;c0-10.7693,8.7303-19.4996,19.4996-19.4996h152.0007c10.7694,0,19.4996,8.7303,19.4996,19.4996v114.0008&#10;&#9;&#9;&#9;C1523.1642,1113.4111,1514.434,1122.1415,1503.6646,1122.1415z" style="fill: rgb(234, 229, 233);"/>
		<g>
			<path d="M 1495.830933 1010.266418 A 12.875 12.875 0 0 1 1482.955933 1023.141418 A 12.875 12.875 0 0 1 1470.080933 1010.266418 A 12.875 12.875 0 0 1 1482.955933 997.391418 A 12.875 12.875 0 0 1 1495.830933 1010.266418 Z" class="st35" style="fill: rgb(163, 196, 110);"/>
			<path class="st24" d="M1496.6554,1038.9475h-27.3989c-2.1932,0-3.9709,1.7778-3.9709,3.9709s1.7777,3.9709,3.9709,3.9709h27.3989&#10;&#9;&#9;&#9;&#9;c2.1931,0,3.9709-1.7778,3.9709-3.9709S1498.8485,1038.9475,1496.6554,1038.9475z" style="fill: rgb(218, 195, 212);"/>
			<path class="st11" d="M1496.6554,1055.3936h-27.3989c-2.1932,0-3.9709,1.7778-3.9709,3.9708&#10;&#9;&#9;&#9;&#9;c0,2.1931,1.7777,3.9709,3.9709,3.9709h27.3989c2.1931,0,3.9709-1.7778,3.9709-3.9709&#10;&#9;&#9;&#9;&#9;C1500.6263,1057.1714,1498.8485,1055.3936,1496.6554,1055.3936z" style="fill: rgb(218, 121, 145);"/>
		</g>
		<path class="st24" d="M1357.0631,1002.2954l14.8518,21.603c1.9852,2.8876,6.2489,2.8876,8.2341,0l14.8519-21.603&#10;&#9;&#9;&#9;c2.2789-3.3149-0.0944-7.8266-4.1171-7.8266h-29.7037C1357.1573,994.4688,1354.7841,998.9805,1357.0631,1002.2954z" style="fill: rgb(218, 195, 212);"/>
	</g>
	<g>
		<path class="st24" d="M1565.0411,938.5184h-59.7539c-3.3816,0-6.123-2.7413-6.123-6.123l0,0c0-3.3817,2.7415-6.123,6.123-6.123&#10;&#9;&#9;&#9;h59.7539c3.3817,0,6.123,2.7414,6.123,6.123l0,0C1571.1642,935.777,1568.4229,938.5184,1565.0411,938.5184z" style="fill: rgb(218, 195, 212);"/>
		<path class="st24" d="M1532.1027,959.9529h-26.8154c-3.3816,0-6.123-2.7413-6.123-6.123l0,0c0-3.3817,2.7415-6.123,6.123-6.123&#10;&#9;&#9;&#9;h26.8154c3.3817,0,6.123,2.7414,6.123,6.123l0,0C1538.2257,957.2116,1535.4844,959.9529,1532.1027,959.9529z" style="fill: rgb(218, 195, 212);"/>
	</g>
	
		<path d="M 1227.800583 942.31958 A 81.118698 87.462601 0 0 1 1146.681885 1029.782181 A 81.118698 87.462601 0 0 1 1065.563187 942.31958 A 81.118698 87.462601 0 0 1 1146.681885 854.856979 A 81.118698 87.462601 0 0 1 1227.800583 942.31958 Z" transform="matrix(0.9587 -0.2843 0.2843 0.9587 -220.5802 364.877)" class="st15" style="fill: rgb(244, 237, 242);"/>
	<g>
		<path class="st29" d="M1233.1025,835.0072l-19.6876,5.2753c-1.8507,0.4959-3.7529-0.6024-4.2488-2.453l0,0&#10;&#9;&#9;&#9;c-0.496-1.8507,0.6023-3.7529,2.453-4.2488l19.6876-5.2753c1.8507-0.4958,3.7529,0.6024,4.2488,2.4531l0,0&#10;&#9;&#9;&#9;C1236.0514,832.6091,1234.9531,834.5114,1233.1025,835.0072z" style="fill: rgb(158, 126, 145);"/>
		<path class="st29" d="M1237.3113,850.7147l-19.6876,5.2753c-1.8506,0.4959-3.7529-0.6024-4.2488-2.4531l0,0&#10;&#9;&#9;&#9;c-0.4958-1.8506,0.6024-3.7529,2.453-4.2488l19.6876-5.2753c1.8507-0.4959,3.7529,0.6024,4.2489,2.453v0.0001&#10;&#9;&#9;&#9;C1240.2603,848.3165,1239.162,850.2188,1237.3113,850.7147z" style="fill: rgb(158, 126, 145);"/>
	</g>
	<path class="st24" d="M1683.1367,935.6962L1683.1367,935.6962c-9.8608,9.4398-10.202,25.0859-0.7622,34.9467l28.9796,30.2722&#10;&#9;&#9;c9.4397,9.8608,25.0858,10.2021,34.9467,0.7623l0,0c9.8608-9.4398,10.2021-25.0859,0.7623-34.9467l-28.9796-30.2721&#10;&#9;&#9;C1708.6437,926.5977,1692.9976,926.2564,1683.1367,935.6962z" style="fill: rgb(218, 195, 212);"/>
	<g>
		<path class="st15" d="M1364.8252,1858.6025c-4.8701,0-9.8037-0.3857-14.7666-1.1816&#10;&#9;&#9;&#9;c-50.4414-8.0928-84.771-55.5449-76.6782-105.9863l19.0259-118.5801c8.0933-50.4414,55.5469-84.7656,105.9858-76.6787&#10;&#9;&#9;&#9;c50.4409,8.0938,84.771,55.5449,76.6782,105.9863l-19.0264,118.5801C1448.748,1826.2207,1409.4561,1858.6025,1364.8252,1858.6025z&#10;&#9;&#9;&#9;" style="fill: rgb(244, 237, 242);"/>
		<path class="st20" d="M1422.6868,1563.5837c24.2358,20.2173,37.5044,52.3232,32.142,85.7471l-19.0264,118.5801&#10;&#9;&#9;&#9;c-7.2959,45.4785-46.5879,77.8604-91.2188,77.8604c-4.8701,0-9.8037-0.3857-14.7666-1.1816&#10;&#9;&#9;&#9;c-8.6121-1.3818-16.7535-3.9125-24.2953-7.4078c12.3396,10.2937,27.519,17.5088,44.5369,20.2391&#10;&#9;&#9;&#9;c4.9629,0.7959,9.8965,1.1816,14.7666,1.1816c44.6309,0,83.9229-32.3818,91.2188-77.8604l19.0264-118.5801&#10;&#9;&#9;&#9;C1481.7814,1620.3326,1459.3179,1580.5613,1422.6868,1563.5837z" style="fill: rgb(219, 210, 217);"/>
		<path class="st15" d="M1398.7689,1711.2175h-132.8896c-51.5421,0-93.3252,41.7831-93.3252,93.3252v32.8556h275.6504v-76.7452&#10;&#9;&#9;&#9;C1448.2045,1733.3506,1426.0714,1711.2175,1398.7689,1711.2175z" style="fill: rgb(244, 237, 242);"/>
		<path class="st20" d="M1454.3092,1825.7902c4.4799-9.0743,7.0079-19.2845,7.0079-30.0892&#10;&#9;&#9;&#9;c0-37.5977-30.479-68.0764-68.0765-68.0764s-68.0764,30.4788-68.0764,68.0764c0,10.8047,2.5281,21.0149,7.0079,30.0892H1454.3092z&#10;&#9;&#9;&#9;" style="fill: rgb(219, 210, 217);"/>
		<path class="st2" d="M1438.8513,1813.818H1178.045c-14.5543,0-26.3531,11.7988-26.3531,26.3534l0,0&#10;&#9;&#9;&#9;c0,14.5546,11.7988,26.3533,26.3531,26.3533h260.8063c14.5544,0,26.3531-11.7987,26.3531-26.3533l0,0&#10;&#9;&#9;&#9;C1465.2045,1825.6168,1453.4058,1813.818,1438.8513,1813.818z" style="fill: rgb(183, 165, 179);"/>
	</g>
	<g>
		<path class="st15" d="M1698.0049,1858.6035c-44.4033,0-83.5928-32.0674-91.1309-77.3135l-18.4092-110.5&#10;&#9;&#9;&#9;c-8.3955-50.3926,25.6494-98.0479,76.041-106.4434c50.3887-8.3975,98.0479,25.6494,106.4434,76.041l18.4092,110.5&#10;&#9;&#9;&#9;c8.3955,50.3926-25.6494,98.0479-76.041,106.4434C1708.1719,1858.1885,1703.0547,1858.6035,1698.0049,1858.6035z" style="fill: rgb(244, 237, 242);"/>
		<path class="st20" d="M1732.7413,1825.7902c4.4799-9.0743,7.0078-19.2845,7.0078-30.0892&#10;&#9;&#9;&#9;c0-37.5977-30.4789-68.0764-68.0765-68.0764c-37.5974,0-68.0763,30.4788-68.0763,68.0764c0,10.8047,2.528,21.0149,7.0078,30.0892&#10;&#9;&#9;&#9;H1732.7413z" style="fill: rgb(219, 210, 217);"/>
		<path class="st15" d="M1712.9537,1711.2175h44.7803c40.1013,0,72.6099,32.5085,72.6099,72.6099v53.5709h-190v-53.5709&#10;&#9;&#9;&#9;C1640.3439,1743.7261,1672.8524,1711.2175,1712.9537,1711.2175z" style="fill: rgb(244, 237, 242);"/>
		<path class="st20" d="M1757.7339,1711.2177h-34c40.1013,0,72.6099,32.5085,72.6099,72.6099v53.5708h34v-53.5708&#10;&#9;&#9;&#9;C1830.3438,1743.7262,1797.8352,1711.2177,1757.7339,1711.2177z" style="fill: rgb(219, 210, 217);"/>
		<path class="st2" d="M1787.9253,1813.818h-173.1627c-14.5544,0-26.3533,11.7988-26.3533,26.3534l0,0&#10;&#9;&#9;&#9;c0,14.5546,11.7988,26.3533,26.3533,26.3533h173.1627c14.5543,0,26.3531-11.7987,26.3531-26.3533l0,0&#10;&#9;&#9;&#9;C1814.2784,1825.6168,1802.4796,1813.818,1787.9253,1813.818z" style="fill: rgb(183, 165, 179);"/>
		<path class="st1" d="M1821.9253,1813.818h-173.1627c-14.5544,0-26.3533,11.7988-26.3533,26.3534l0,0&#10;&#9;&#9;&#9;c0,14.5546,11.7988,26.3533,26.3533,26.3533h173.1627c14.5543,0,26.3531-11.7987,26.3531-26.3533l0,0&#10;&#9;&#9;&#9;C1848.2784,1825.6168,1836.4796,1813.818,1821.9253,1813.818z" style="fill: rgb(150, 131, 146);"/>
	</g>
	<g>
		<path class="st24" d="M1497.5029,1525.8887c-1.5166,0-3.0557-0.166-4.5977-0.5098l-96.1509-21.4795&#10;&#9;&#9;&#9;c-11.3188-2.5293-18.4448-13.7549-15.916-25.0732c2.5283-11.3193,13.7515-18.4414,25.0728-15.917l96.1504,21.4795&#10;&#9;&#9;&#9;c11.3193,2.5293,18.4453,13.7549,15.917,25.0732C1515.7939,1519.2393,1507.1201,1525.8887,1497.5029,1525.8887z" style="fill: rgb(218, 195, 212);"/>
		<path class="st24" d="M1485.6104,1579.127c-1.5166,0-3.0557-0.166-4.5977-0.5098l-96.1514-21.4795&#10;&#9;&#9;&#9;c-11.3188-2.5293-18.4448-13.7549-15.916-25.0732c2.5283-11.3193,13.751-18.4414,25.0732-15.917l96.1504,21.4795&#10;&#9;&#9;&#9;c11.3193,2.5293,18.4453,13.7549,15.917,25.0732C1503.9014,1572.4775,1495.2275,1579.127,1485.6104,1579.127z" style="fill: rgb(218, 195, 212);"/>
		<g>
			<path class="st20" d="M1389.2463,1437.3428l-17.8109-4.3177c-4.274-1.0349-8.6597-1.5599-13.0343-1.5599&#10;&#9;&#9;&#9;&#9;c-25.5715,0-47.6405,17.3688-53.6675,42.2391l-8.8644,36.5736c-3.4756,14.3412-1.1591,29.1771,6.5236,41.7745&#10;&#9;&#9;&#9;&#9;c7.6826,12.5991,19.812,21.4525,34.1539,24.9281l17.8092,4.316c4.2732,1.0358,8.6581,1.5608,13.0336,1.5608h0.0034&#10;&#9;&#9;&#9;&#9;c25.5697,0,47.6378-17.3688,53.6648-42.2374l8.8652-36.5745C1437.0981,1474.4406,1418.8503,1444.5179,1389.2463,1437.3428z" style="fill: rgb(219, 210, 217);"/>
			<path class="st33" d="M1382.7716,1464.052l-17.8087-4.3164c-14.901-3.6115-29.9083,5.5404-33.5199,20.4414l-8.8644,36.5737&#10;&#9;&#9;&#9;&#9;c-3.6116,14.9009,5.5404,29.9083,20.4413,33.5199l17.8088,4.3163c14.9009,3.6115,29.9083-5.5404,33.5199-20.4414l8.8644-36.5736&#10;&#9;&#9;&#9;&#9;C1406.8246,1482.6708,1397.6726,1467.6635,1382.7716,1464.052z" style="fill: rgb(234, 225, 231);"/>
		</g>
	</g>
	<g>
		<path class="st36" d="M1560.5547,1493.4805c-10.0801,0-18.9766-7.2783-20.6885-17.5508&#10;&#9;&#9;&#9;c-1.9072-11.4395,5.8213-22.2598,17.2617-24.166l168-28c11.4355-1.9102,22.2588,5.8213,24.166,17.2617&#10;&#9;&#9;&#9;c1.9072,11.4395-5.8213,22.2598-17.2617,24.166l-168,28C1562.8643,1493.3867,1561.7012,1493.4805,1560.5547,1493.4805z" style="fill: rgb(198, 179, 194);"/>
		<path class="st36" d="M1569.168,1542.1641c-10.0801,0-18.9766-7.2783-20.6885-17.5508&#10;&#9;&#9;&#9;c-1.9072-11.4395,5.8213-22.2598,17.2617-24.166l168-28c11.4385-1.9102,22.2598,5.8213,24.166,17.2617&#10;&#9;&#9;&#9;c1.9072,11.4395-5.8213,22.2598-17.2617,24.166l-168,28C1571.4775,1542.0703,1570.3145,1542.1641,1569.168,1542.1641z" style="fill: rgb(198, 179, 194);"/>
		<g>
			<path class="st37" d="M1644.0863,1407.1423l-18.0271,3.2999c-4.3256,0.793-8.5455,2.097-12.5421,3.8765&#10;&#9;&#9;&#9;&#9;c-23.3607,10.4009-36.4572,35.2444-31.8474,60.4159l6.7778,37.0171c2.658,14.515,10.8086,27.1261,22.9508,35.5096&#10;&#9;&#9;&#9;&#9;c12.1429,8.385,26.8247,11.5396,41.3403,8.8813l18.025-3.3008c4.3251-0.7919,8.5443-2.0957,12.5416-3.8754l0.0031-0.0013&#10;&#9;&#9;&#9;&#9;c23.3591-10.4001,36.4548-35.2434,31.8458-60.4133l-6.7775-37.0183C1702.8901,1421.5698,1674.0493,1401.6561,1644.0863,1407.1423&#10;&#9;&#9;&#9;&#9;z" style="fill: rgb(196, 187, 194);"/>
			<path class="st33" d="M1649.035,1434.1759l-18.0248,3.3004c-15.0815,2.7615-25.0691,17.2261-22.3076,32.3079l6.7778,37.0172&#10;&#9;&#9;&#9;&#9;c2.7615,15.0815,17.2262,25.0691,32.3079,22.3076l18.0248-3.3003c15.0815-2.7615,25.0691-17.2263,22.3076-32.3079&#10;&#9;&#9;&#9;&#9;l-6.7778-37.0172C1678.5814,1441.402,1664.1167,1431.4146,1649.035,1434.1759z" style="fill: rgb(234, 225, 231);"/>
		</g>
	</g>
</g>
<g>
	<path d="M 1303.089935 1914.311279 A 150.032196 26.4065 0 0 1 1153.057739 1940.717779 A 150.032196 26.4065 0 0 1 1003.025543 1914.311279 A 150.032196 26.4065 0 0 1 1153.057739 1887.904779 A 150.032196 26.4065 0 0 1 1303.089935 1914.311279 Z" class="st6" style="fill: rgb(158, 68, 65);"/>
	<g>
		<path class="st7" d="M1259.1587,1904.3474L1259.1587,1904.3474l-1.1428-16.4427l-12.1879,4.2528&#10;&#9;&#9;&#9;c-20.9961-9.9309-64.3462-16.6376-114.3534-16.4359c-70.4121,0.2839-127.343,14.1545-127.1584,30.9807&#10;&#9;&#9;&#9;c0.1844,16.8262,57.4141,30.2365,127.8262,29.9524s127.343-14.1545,127.1584-30.9807&#10;&#9;&#9;&#9;C1259.296,1905.2291,1259.2426,1904.7872,1259.1587,1904.3474z" style="fill: rgb(193, 98, 91);"/>
		<path class="st5" d="M1124.5259,1866.2942c-70.4835,5.5188-124.852,24.0718-121.4357,41.4392&#10;&#9;&#9;&#9;c3.4163,17.3674,63.3237,26.9727,133.8071,21.4539c70.4835-5.5188,124.8521-24.0718,121.4357-41.4392&#10;&#9;&#9;&#9;C1254.9167,1870.3806,1195.0093,1860.7753,1124.5259,1866.2942z" style="fill: rgb(209, 115, 105);"/>
	</g>
	<path class="st7" d="M1103.6033,1884.7303c-11.8359,1.5586-20.9115,4.3933-20.2704,6.3312&#10;&#9;&#9;c0.6411,1.938,10.7562,2.2454,22.5922,0.6868c11.8359-1.5587,20.9115-4.3933,20.2703-6.3313&#10;&#9;&#9;C1125.5542,1883.479,1115.4391,1883.1716,1103.6033,1884.7303z" style="fill: rgb(193, 98, 91);"/>
	<path class="st7" d="M1159.7791,1901.5891c-5.8762,0.7738-10.1201,2.9722-9.479,4.9102c0.6411,1.9379,5.9247,2.8816,11.8008,2.1078&#10;&#9;&#9;s10.1201-2.9722,9.4789-4.9102C1170.9386,1901.7589,1165.6552,1900.8153,1159.7791,1901.5891z" style="fill: rgb(193, 98, 91);"/>
</g>
</svg>